<?xml version="1.0" standalone="no"?>
<!DOCTYPE svg PUBLIC "-//W3C//DTD SVG 1.1//EN" "http://www.w3.org/Graphics/SVG/1.1/DTD/svg11.dtd" >
<!--
2013-9-30: Created.
-->
<svg>
<metadata>
Created by iconfont
</metadata>
<defs>

<font id="icon-font" horiz-adv-x="1024" >
  <font-face
    font-family="icon-font"
    font-weight="500"
    font-stretch="normal"
    units-per-em="1024"
    ascent="896"
    descent="-128"
  />
    <missing-glyph />
    
    <glyph glyph-name="crop_landscape" unicode="&#59668;" d="M810 170v428h-596v-428h596z m0 512c46 0 86-38 86-84v-428c0-46-40-84-86-84h-596C168 86 128 124 128 170v428c0 46 40 84 86 84h596z"  horiz-adv-x="1024" />

    
    <glyph glyph-name="keyboard_hide" unicode="&#59924;" d="M512-86l-170 172h340z m298 640V640h-84v-86h84z m0-128V512h-84v-86h84z m-128 128V640h-84v-86h84z m0-128V512h-84v-86h84z m0-170V342h-340V256h340z m-384 298V640h-84v-86h84z m0-128V512h-84v-86h84zM342 512v-86h84V512h-84z m0 128v-86h84V640h-84z m128-128v-86h84V512h-84z m0 128v-86h84V640h-84z m384 128c46 0 84-40 84-86V256c0-46-38-86-84-86h-684c-46 0-84 40-84 86V682C86 728 124 768 170 768h684z"  horiz-adv-x="1024" />

    
    <glyph glyph-name="remove_circle_outlin" unicode="&#60180;" d="M512 42c188 0 342 154 342 342S700 726 512 726 170 572 170 384 324 42 512 42z m0 768c236 0 426-190 426-426S748-42 512-42 86 148 86 384 276 810 512 810z m-214-384h428v-84h-428v84z"  horiz-adv-x="1024" />

    
    <glyph glyph-name="wait_two_a" unicode="&#60436;" d="M512.664 41.336c188 0 342 154 342 342s-154 342-342 342-342-154-342-342 154-342 342-342z m0 768c236 0 426-190 426-426s-190-426-426-426-426 190-426 426 190 426 426 426zM518.664 601.336c41.4 0 75.6-12 102.6-36 26.4-24 39.6-54.6 39.6-93 0-37.2-14.4-70.8-42-101.4-16.8-18-46.8-40.8-88.8-69-43.8-28.8-70.2-54-79.8-75.6h211.2v-61.8h-298.8c0 43.8 13.8 81.6 42.6 114 15.6 18 48.6 44.4 98.4 78.6 27.6 19.2 46.8 35.4 58.8 48 18.6 21 28.2 43.8 28.2 67.8 0 23.4-6.6 40.8-18.6 52.2-12.6 11.4-31.2 16.8-55.8 16.8-26.4 0-46.2-9-59.4-27-13.2-16.8-20.4-42.6-21.6-76.2h-70.2c0.6 48 14.4 86.4 42 115.8 28.2 31.2 65.4 46.8 111.6 46.8z"  horiz-adv-x="1024" />

    
    <glyph glyph-name="crop_portrait" unicode="&#59669;" d="M726 86v596h-428v-596h428z m0 682c46 0 84-40 84-86v-596c0-46-38-86-84-86h-428c-46 0-84 40-84 86v596C214 728 252 768 298 768h428z"  horiz-adv-x="1024" />

    
    <glyph glyph-name="label" unicode="&#59925;" d="M752 646L938 384 752 122c-16-22-42-36-70-36h-468C168 86 128 124 128 170v428c0 46 40 84 86 84h468c28 0 54-14 70-36z"  horiz-adv-x="1024" />

    
    <glyph glyph-name="remove_from_queue" unicode="&#60181;" d="M682 470V384h-340V470h340zM896 170v512H128v-512h768zM896 768c46 0 86-38 86-86l-2-512c0-46-38-84-84-84H682V0h-340v86H128c-48 0-86 38-86 84v512C42 730 80 768 128 768h768z"  horiz-adv-x="1024" />

    
    <glyph glyph-name="wait_three_a" unicode="&#60437;" d="M512.664 41.336c188 0 342 154 342 342s-154 342-342 342-342-154-342-342 154-342 342-342z m0 768c236 0 426-190 426-426s-190-426-426-426-426 190-426 426 190 426 426 426zM516.2 605.336c43.2 0 78.6-10.2 105-31.2 25.8-21 39-49.8 39-87 0-46.8-24-78-71.4-93.6 25.2-7.8 45-19.2 58.2-34.8 14.4-16.2 21.6-37.2 21.6-62.4 0-39.6-13.8-72-41.4-97.2-28.8-25.8-66.6-39-113.4-39-44.4 0-80.4 11.4-107.4 34.2-30 25.2-46.8 62.4-50.4 110.4h71.4c1.2-27.6 9.6-49.2 26.4-64.2 15-13.8 34.8-21 59.4-21 27 0 48.6 7.8 64.2 22.8 13.8 13.8 21 30.6 21 51 0 24.6-7.8 42.6-22.2 54-14.4 12-35.4 17.4-63 17.4H483.2v52.8h30c25.2 0 44.4 5.4 57.6 16.2 12.6 10.8 19.2 27 19.2 48s-6 36.6-17.4 47.4c-12.6 10.8-31.2 16.2-55.8 16.2-25.2 0-44.4-6-58.2-18.6-14.4-12.6-22.8-31.8-25.2-57.6H364.4c3.6 43.2 19.2 76.8 48 100.8 27 24 61.8 35.4 103.8 35.4z"  horiz-adv-x="1024" />

    
    <glyph glyph-name="crop_square" unicode="&#59670;" d="M768 128V640H256v-512h512z m0 598c46 0 86-40 86-86v-512c0-46-40-86-86-86H256c-46 0-86 40-86 86V640c0 46 40 86 86 86h512z"  horiz-adv-x="1024" />

    
    <glyph glyph-name="laptop_mac" unicode="&#59926;" d="M512 86c24 0 42 18 42 42S536 170 512 170 470 152 470 128s18-42 42-42z m-342 596v-468h684v468h-684zM854 128H1024c0-46-40-86-86-86H86C40 42 0 82 0 128h170c-46 0-84 40-84 86v468C86 728 124 768 170 768h684c46 0 84-40 84-86v-468c0-46-38-86-84-86z"  horiz-adv-x="1024" />

    
    <glyph glyph-name="reorder" unicode="&#60182;" d="M128 682h768v-84H128v84z m0-256V512h768v-86H128z m0-340v84h768v-84H128zM128 256V342h768V256H128z"  horiz-adv-x="1024" />

    
    <glyph glyph-name="wallpaper" unicode="&#60438;" d="M170 342v-300h300v-84h-300c-46 0-84 38-84 84v300h84z m684-300v300h84v-300c0-46-38-84-84-84h-300v84h300z m0 768c46 0 84-38 84-84v-300h-84v300h-300v84h300z m-128-276c0-36-28-64-64-64s-64 28-64 64 28 64 64 64 64-28 64-64z m-300-192l128-158L640 298 768 128H256z m-256 384v-300h-84v300c0 46 38 84 84 84h300v-84h-300z"  horiz-adv-x="1024" />

    
    <glyph glyph-name="crop" unicode="&#59671;" d="M298 170h684v-84h-172v-172h-84v172h-428c-46 0-84 38-84 84v428H42v84h172V854h84v-684zM726 256V598H384v84h342c46 0 84-38 84-84V256h-84z"  horiz-adv-x="1024" />

    
    <glyph glyph-name="laptop_windows" unicode="&#59927;" d="M170 682V256h684V682h-684zM854 128H1024v-86H0V128h170v42c-46 0-84 40-84 86V682C86 728 124 768 170 768h684c46 0 84-40 84-86V256c0-46-38-86-84-86V128z"  horiz-adv-x="1024" />

    
    <glyph glyph-name="repeat" unicode="&#60183;" d="M726 170v172h84v-256h-512v-128L128 128l170 170v-128h428z m-428 428v-172h-84v256h512v128L896 640 726 470v128h-428z"  horiz-adv-x="1024" />

    
    <glyph glyph-name="wait_two_b" unicode="&#60439;" d="M512.664 809.336c236 0 426-190 426-426s-190-426-426-426-426 190-426 426 190 426 426 426zM520 616c-49.36 0-89.104-16.664-119.232-50-29.488-31.408-44.232-72.44-44.872-123.72h75c1.28 35.896 8.976 63.464 23.08 81.408 14.104 19.232 35.256 28.848 63.464 28.848 26.28 0 46.152-5.768 59.616-17.952 12.824-12.176 19.872-30.768 19.872-55.768 0-25.64-10.256-50-30.128-72.432-12.824-13.464-33.336-30.768-62.824-51.28-53.208-36.536-88.464-64.744-105.128-83.976-30.768-34.616-45.512-75-45.512-121.792h319.232V215.36H446.928c10.256 23.08 38.464 50 85.256 80.768 44.872 30.128 76.92 54.488 94.872 73.72 29.488 32.696 44.872 68.592 44.872 108.336 0 41.024-14.104 73.72-42.304 99.36-28.848 25.64-65.384 38.464-109.616 38.464z"  horiz-adv-x="1024" />

    
    <glyph glyph-name="contact_support" unicode="&#59672;" d="M512 810.664c-200.104 0-362.664-162.56-362.664-362.664S311.896 85.336 512 85.336h21.336v-128C740.696 57.176 874.672 256 874.672 448c0 200.104-162.56 362.664-362.664 362.664zM554.664 192H469.328V277.336h85.336V192z m0 149.336H469.328c0 138.664 128 128 128 213.336 0 46.936-38.4 85.336-85.336 85.336s-85.336-38.4-85.336-85.336H341.32c0 94.296 76.376 170.664 170.664 170.664s170.664-76.376 170.664-170.664c0-106.664-128-117.336-128-213.336z"  horiz-adv-x="1024" />

    
    <glyph glyph-name="label_outline" unicode="&#59928;" d="M682 170l152 214-152 214h-468v-428h468zM752 646L938 384 752 122c-16-22-42-36-70-36h-468C168 86 128 124 128 170v428c0 46 40 84 86 84h468c28 0 54-14 70-36z"  horiz-adv-x="1024" />

    
    <glyph glyph-name="repeat_one" unicode="&#60184;" d="M554 256h-64V426h-64v44L512 512h42v-256z m172-86v172h84v-256h-512v-128L128 128l170 170v-128h428z m-428 428v-172h-84v256h512v128L896 640 726 470v128h-428z"  horiz-adv-x="1024" />

    
    <glyph glyph-name="wait_three_b" unicode="&#60440;" d="M512.664 809.336c236 0 426-190 426-426s-190-426-426-426-426 190-426 426 190 426 426 426zM517.256 616c-44.024 0-80.504-11.952-108.808-37.104-30.192-25.16-46.544-60.376-50.312-105.656h72.328c2.52 27.04 11.32 47.168 26.416 60.376 14.464 13.208 34.592 19.496 61.008 19.496 25.784 0 45.28-5.664 58.488-16.984 11.952-11.32 18.24-27.672 18.24-49.688s-6.92-38.992-20.128-50.312c-13.84-11.32-33.96-16.984-60.376-16.984h-31.448v-55.344h31.448c28.928 0 50.944-5.656 66.04-18.24 15.096-11.952 23.272-30.816 23.272-56.608 0-21.384-7.544-38.992-22.016-53.456-16.352-15.72-38.992-23.896-67.296-23.896-25.784 0-46.544 7.544-62.264 22.016-17.608 15.72-26.416 38.368-27.672 67.296h-74.84c3.776-50.312 21.384-89.304 52.832-115.72 28.304-23.896 66.04-35.848 112.576-35.848 49.056 0 88.68 13.84 118.864 40.88 28.928 26.416 43.392 60.376 43.392 101.888 0 26.416-7.544 48.424-22.64 65.408-13.84 16.352-34.592 28.304-61.008 36.48 49.688 16.352 74.84 49.056 74.84 98.112 0 38.992-13.84 69.184-40.88 91.192-27.672 22.016-64.776 32.704-110.064 32.704z"  horiz-adv-x="1024" />

    
    <glyph glyph-name="crop_rotate" unicode="&#59673;" d="M342 214h512V128H768v-86H682V128h-340C294 128 256 168 256 214v340H170V640H256V726h86v-512z m340 84v256h-256V640h256C728 640 768 602 768 554v-256H682zM514 896c268 0 488-208 510-470h-64c-16 160-114 296-254 362l-58-56L486 894C496 894 504 896 514 896z m-196-916l58 56 162-162c-10 0-18-2-28-2-268 0-488 208-510 470h64c16-160 114-296 254-362z"  horiz-adv-x="1024" />

    
    <glyph glyph-name="laptop" unicode="&#59929;" d="M170 640v-426h684V640h-684z m684-512H1024v-86H0V128h170c-46 0-84 40-84 86V640c0 46 38 86 84 86h684c46 0 84-40 84-86v-426c0-46-38-86-84-86z"  horiz-adv-x="1024" />

    
    <glyph glyph-name="replay_" unicode="&#60185;" d="M504 316c-3.584-1.432-14-4.808-14-8 0-4-4-6-4-6H456l10 94H568v-30h-74l-4-38s4 0 4 4 6 2 6 6 4 0 8 0h8c8 0 18-2 22-6s12-8 16-12c8.872-8.872 18-27.256 18-46 0-8 0-18-4-22s-6-14-14-22-12-8-16-12-18-4-26-4-18 0-22 4-12 4-20 8c-11.192 5.6-18 22.552-18 38h34c0-14.808 10.592-20 26-20 4 0 8 0 12 4l10 8s4 8 4 12v26l-4 8L524 312s-8 4-12 4h-8z m8 366c188 0 342-152 342-340S700 0 512 0 170 154 170 342H256c0-140 116-256 256-256s256 116 256 256-116 256-256 256v-172L298 640 512 854v-172z"  horiz-adv-x="1024" />

    
    <glyph glyph-name="watch" unicode="&#60441;" d="M256 384c0-142 114-256 256-256s256 114 256 256-114 256-256 256-256-114-256-256z m598 0c0-108-52-206-130-268L682-128h-340L300 116c-80 62-130 160-130 268S220 590 300 652L342 896h340l42-244c78-62 130-160 130-268z"  horiz-adv-x="1024" />

    
    <glyph glyph-name="custom_Directory" unicode="&#59674;" d="M427.464 725.336l85.2-85.2h340.8c46.864 0 85.2-38.336 85.2-85.2v-426c0-46.864-38.344-85.2-85.2-85.2h-681.6c-46.856 0-85.2 38.344-85.2 85.2l0.424 511.2c0 46.864 37.912 85.2 84.776 85.2h255.6z m227.528-388.688c0.792 6.36 1.392 12.72 1.392 19.48s-0.6 13.12-1.392 19.48l41.944 32.8c3.776 2.984 4.768 8.352 2.384 12.72l-39.76 68.784c-2.384 4.376-7.752 5.96-12.128 4.376l-49.504-19.88a145.12 145.12 0 0 1-33.6 19.48l-7.552 52.68c-0.6 4.768-4.768 8.352-9.744 8.352h-79.52c-4.968 0-9.144-3.576-9.744-8.352l-7.552-52.68c-12.128-4.968-23.256-11.728-33.6-19.48l-49.504 19.88a9.696 9.696 0 0 1-12.128-4.376l-39.76-68.784a9.8 9.8 0 0 1 2.384-12.72l41.944-32.8c-0.792-6.36-1.392-12.92-1.392-19.48s0.6-13.12 1.392-19.48l-41.944-32.8c-3.776-2.984-4.768-8.352-2.384-12.72l39.76-68.784c2.384-4.376 7.752-5.968 12.128-4.376l49.504 19.88a145.12 145.12 0 0 1 33.6-19.48l7.552-52.68c0.6-4.768 4.768-8.352 9.744-8.352h79.52c4.968 0 9.144 3.576 9.744 8.352l7.552 52.68c12.128 4.968 23.256 11.728 33.6 19.48l49.504-19.88c4.576-1.792 9.744 0 12.128 4.376l39.76 68.784c2.384 4.376 1.392 9.744-2.384 12.72l-41.944 32.8z m-147.704-50.096c-38.368 0-69.576 31.208-69.576 69.584s31.208 69.576 69.576 69.576c38.368 0 69.576-31.208 69.576-69.576s-31.208-69.584-69.576-69.584z"  horiz-adv-x="1024" />

    
    <glyph glyph-name="layers_clear" unicode="&#59930;" d="M140 854l798-800-54-54-160 162-212-164L128 296l70 54L512 104l150 118-60 60L512 214C383.976 313.312 256.376 413.04 128 512l138 108L86 800zM896 512c-57.76-44.24-114.864-89.136-172-134l-336 336 124 96z m-50-256L784 318l50 38L896 296z"  horiz-adv-x="1024" />

    
    <glyph glyph-name="replay_1" unicode="&#60186;" d="M564 248c0-6.528 12.648-14 20-14 4 0 10 0 14 4l8 10s4 8 4 12V346s-4 8-4 12c0 5.504-16.424 14-22 14-4 0-8-2-12-6l-8-8s-6-8-6-12V260s6-8 6-12zM648 290c0-12 0-26-4-34L632 230s-14-12-22-12-18-4-26-4-18 0-26 4-12 8-20 12c-13.488 6.744-18 39.488-18 60V320c0 12 0 26 4 34l14 26s12 12 20 12 18 4 26 4 18 0 26-4S624 384 632 380s8-14 12-26 4-22 4-34v-30z m-182-76h-40v140L384 342V372l76 24h6v-182zM512 682c188 0 342-152 342-340S700 0 512 0 170 154 170 342H256c0-140 116-256 256-256s256 116 256 256-116 256-256 256v-172L298 640 512 854v-172z"  horiz-adv-x="1024" />

    
    <glyph glyph-name="wb_auto" unicode="&#60442;" d="M440 214h80l-136 384H298l-136-384H244l30 84h136z m498 384H1016l-88-384h-74l-64 260-64-260h-76l-4 18c-56-112-170-190-304-190C154 42 0 196 0 384s154 342 342 342c108 0 204-50 266-128h32L692 328l64 270h68L888 328zM292 356L342 512l48-156H292z"  horiz-adv-x="1024" />

    
    <glyph glyph-name="d_rotation" unicode="&#59675;" d="M512 896c268 0 488-206 510-468h-64C944 588 844 722 704 788l-58-56L484 894z m194-504c0 69.872-27.336 114-94 114h-40V260h38c51.288 0 80.544 27.904 92 68 4 14 4 30 4 48v16zM612 554c76.368 0 121.864-38.664 144-94 8-20 10-44 10-68v-16c0-52.808-15.144-91.144-42-118-26.824-26.824-61.104-44-114-44H512v340h100zM414 388c30.608-12.24 56-36.496 56-78 0-16-4-28-10-40s-12-24-22-32c-18.752-15.008-47.096-24-80-24-62.192 0-108 31.488-108 94H304c0-30.904 23.208-50 54-50 35.744 0 56 17.08 56 54 0 37.688-24.792 54-62 54h-32v44h32c34.608 0 58 16.064 58 50 0 33.048-17.68 50-52 50-28.888 0-50-17.16-50-46h-56c0 29.784 15.104 49.104 30 64 19.856 15.88 41.8 26 76 26 51.296 0 80.768-19.544 98-54 6-12 8-24 8-40 0-36.376-24.672-59.336-50-72zM320-20l58 56 162-162-28-2C244-128 24 80 2 342h64c16-160 114-296 254-362z"  horiz-adv-x="1024" />

    
    <glyph glyph-name="layers" unicode="&#59931;" d="M512 214C383.976 313.312 256.376 413.04 128 512l384 298L896 512C767.624 413.04 640.024 313.304 512 214zM512 104l314 246L896 296l-384-298L128 296l70 54z"  horiz-adv-x="1024" />

    
    <glyph glyph-name="replay" unicode="&#60187;" d="M512 682c188 0 342-152 342-340S700 0 512 0 170 154 170 342H256c0-142 114-256 256-256s256 114 256 256-114 256-256 256v-172L298 640 512 854v-172z"  horiz-adv-x="1024" />

    
    <glyph glyph-name="watch_later" unicode="&#60443;" d="M692 204l34 56-192 116V598h-64v-256zM512 810c234 0 426-192 426-426s-192-426-426-426-426 192-426 426 192 426 426 426z"  horiz-adv-x="1024" />

    
    <glyph glyph-name="dashboard" unicode="&#59676;" d="M554 768H896v-256H554V768z m0-768V426H896V0H554zM128 0V256h342v-256H128z m0 342V768h342v-426H128z"  horiz-adv-x="1024" />

    
    <glyph glyph-name="lens" unicode="&#59932;" d="M512 810c236 0 426-190 426-426S748-42 512-42 86 148 86 384 276 810 512 810z"  horiz-adv-x="1024" />

    
    <glyph glyph-name="reply_all" unicode="&#60188;" d="M554 512c298-42 428-256 470-470C918 192 768 260 554 260v-174L256 384l298 298V512z m-256 42L128 384l170-170v-128L0 384l298 298v-128z"  horiz-adv-x="1024" />

    
    <glyph glyph-name="wb_cloudy" unicode="&#60444;" d="M826 468C936 460 1024 368 1024 256c0-118-96-214-214-214H256c-142 0-256 114-256 256 0 132 100 240 228 254 54 102 160 174 284 174 156 0 284-110 314-258z"  horiz-adv-x="1024" />

    
    <glyph glyph-name="data_usage" unicode="&#59677;" d="M512 86c94 0 178 44 232 112l112-66c-78-106-202-174-344-174-236 0-426 190-426 426 0 222 168 402 384 424v-128c-144-20-256-146-256-296 0-166 132-298 298-298zM554 808c216-22 384-202 384-424 0-62-12-122-36-174l-112 66c12 34 20 70 20 108 0 150-112 276-256 296V808z"  horiz-adv-x="1024" />

    
    <glyph glyph-name="leak_add" unicode="&#59933;" d="M598 0c0 166 132 298 298 298v-84c-118 0-214-96-214-214h-84zM768 0c0 70 58 128 128 128v-128H768z m-342 0c0 258 212 470 470 470V384c-212 0-384-172-384-384H426z m0 768c0-166-132-298-298-298v84c118 0 214 96 214 214h84z m172 0c0-258-210-470-470-470V384c212 0 384 172 384 384h86zM256 768c0-70-58-128-128-128V768h128z"  horiz-adv-x="1024" />

    
    <glyph glyph-name="reply" unicode="&#60189;" d="M426 512c298-42 428-256 470-470C790 192 640 260 426 260v-174L128 384l298 298V512z"  horiz-adv-x="1024" />

    
    <glyph glyph-name="warning" unicode="&#60445;" d="M554 298v172h-84v-172h84z m0-170V214h-84V128h84z m-512-128L512 810 982 0H42z"  horiz-adv-x="1024" />

    
    <glyph glyph-name="date_range" unicode="&#59678;" d="M810 42V512h-596v-470h596z m0 684c46 0 86-40 86-86v-598c0-46-40-84-86-84h-596c-48 0-86 38-86 84V640c0 46 38 86 86 86H256v84h86v-84h340v84H768v-84h42z m-84-300v-84H640v84h86z m-172 0v-84h-84v84h84z m-170 0v-84H298v84H384z"  horiz-adv-x="1024" />

    
    <glyph glyph-name="leak_remove" unicode="&#59934;" d="M656 402c70 42 152 68 240 68V384c-64 0-124-16-178-44zM850 208l-68 68C816 290 856 298 896 298v-84c-16 0-32-2-46-6z m-252 560c0-88-26-170-68-240l-62 62C496 644 512 704 512 768h86zM128 714L182 768 896 54l-54-54L720 122c-24-34-38-76-38-122h-84c0 68 24 132 62 182l-62 60C544 176 512 92 512 0H426c0 116 42 222 112 304L432 410c-82-70-188-112-304-112V384c92 0 178 32 244 86l-62 62C260 494 196 470 128 470v84c46 0 88 14 122 38zM426 768c0-40-8-80-22-114l-68 68c4 14 6 30 6 46h84z"  horiz-adv-x="1024" />

    
    <glyph glyph-name="report" unicode="&#60190;" d="M554 342v256h-84v-256h84z m-42-184c30 0 56 26 56 56s-26 54-56 54-56-24-56-54 26-56 56-56zM672 768l224-224v-320l-224-224H352L128 224V544l224 224h320z"  horiz-adv-x="1024" />

    
    <glyph glyph-name="wb_incandescent" unicode="&#60446;" d="M736 122l60 58L872 104l-60-60zM854 448h128v-86h-128V448zM640 626c76-44 128-126 128-220 0-142-114-256-256-256S256 264 256 406c0 94 52 176 128 220V832h256v-206zM170 448v-86h-128V448h128z m300-510V64h84v-126h-84zM152 104l76 78 60-60-76-78z"  horiz-adv-x="1024" />

    
    <glyph glyph-name="database" unicode="&#59679;" d="M512 768c-212.08 0-384-53.728-384-120v-96c0-66.272 171.92-120 384-120s384 53.728 384 120V648c0 66.272-171.92 120-384 120zM512 360c-212.08 0-384 53.728-384 120v-144c0-66.272 171.92-120 384-120s384 53.728 384 120V480c0-66.272-171.92-120-384-120zM512 144c-212.08 0-384 53.728-384 120v-144c0-66.272 171.92-120 384-120s384 53.728 384 120V264c0-66.272-171.92-120-384-120z"  horiz-adv-x="1024" />

    
    <glyph glyph-name="last_page" unicode="&#59935;" d="M682 640H768v-512H682V640z m-444-60l60 60 256-256-256-256-60 60L434 384z"  horiz-adv-x="1024" />

    
    <glyph glyph-name="restaurant_menu" unicode="&#60191;" d="M634 404l-62-62L866 48l-60-60L512 282 218-12l-60 60 416 416c-30 66-8 158 60 226 82 82 198 96 260 34s48-180-34-262c-68-68-160-88-226-58z m-288-78l-180 180c-66 66-66 174 0 240L466 448z"  horiz-adv-x="1024" />

    
    <glyph glyph-name="wb_sunny" unicode="&#60447;" d="M152 104l76 78 60-60-76-78z m318-166V64h84v-126h-84zM512 662c142 0 256-114 256-256s-114-256-256-256-256 114-256 256 114 256 256 256zM854 448h128v-86h-128V448zM736 122l60 58L872 104l-60-60z m136 584l-76-76-60 60 76 76zM554 872v-126h-84V872h84z m-384-424v-86h-128V448h128zM288 690l-60-60-76 76 60 60z"  horiz-adv-x="1024" />

    
    <glyph glyph-name="dehaze" unicode="&#59680;" d="M86 662h852V576H86V662z m0-214h852v-86H86V448z m0-214h852v-84H86v84z"  horiz-adv-x="1024" />

    
    <glyph glyph-name="library_music" unicode="&#59936;" d="M170 640v-598H768v-84H170c-46 0-84 38-84 84V640h84zM768 598v84H598V448c-18 14-40 22-64 22-58 0-108-50-108-108S476 256 534 256 640 304 640 362v236h128z m86 212c46 0 84-38 84-84v-512c0-46-38-86-84-86h-512C296 128 256 168 256 214v512c0 46 40 84 86 84h512z"  horiz-adv-x="1024" />

    
    <glyph glyph-name="replay_2" unicode="&#60192;" d="M512 640V810.664L298.664 597.328 512 383.992V554.656c140.8 0 256-115.2 256-256s-115.2-256-256-256-256 115.2-256 256H170.664c0-187.736 153.6-341.336 341.336-341.336s341.336 153.6 341.336 341.336c0 187.736-153.6 341.336-341.336 341.336zM421.072 369.456c23.76 0 42.056-8.464 54.616-25.672 12.56-16.928 18.84-40.144 18.84-70.176 0-31.68-6.824-57.616-19.936-77.28-13.376-19.664-31.4-29.488-53.792-29.488-38.504 0-60.072 17.752-64.72 53.248h31.128c3.824-18.024 15.016-27.032 33.864-27.032 12.832 0 23.208 6.552 31.128 19.112 7.376 12.016 11.2 27.032 11.2 45.056v2.456h-1.368c-5.736-7.92-12.56-13.928-20.48-17.752-7.648-3.552-16.384-5.464-26.216-5.464-19.112 0-34.68 6.28-46.152 18.84-11.472 12.016-16.928 27.584-16.928 46.696 0 19.664 6.552 35.776 19.664 48.336 13.104 12.832 29.488 19.112 49.152 19.112z m1.088-26.488c-11.472 0-20.752-3.824-27.856-11.472s-10.376-17.472-10.376-29.488c0-12.016 3.28-21.576 10.376-28.672 6.552-7.104 15.84-10.92 27.856-10.92 11.744 0 21.024 3.824 27.856 10.92 6.552 7.376 10.104 17.2 10.104 29.768s-3.552 22.12-10.648 29.216c-7.104 7.104-16.384 10.648-27.304 10.648z m164.936 26.488c22.664 0 40.416-9.28 53.248-28.4 12.016-18.024 18.024-42.328 18.024-72.912s-6.008-54.888-18.024-72.912c-12.832-18.84-30.584-28.4-53.248-28.4-22.936 0-40.688 9.56-53.248 28.4-12.016 18.024-18.024 42.328-18.024 72.912s6.008 54.888 18.024 72.912c12.56 19.112 30.312 28.4 53.248 28.4z m0-27.032c-15.568 0-26.488-8.464-32.768-25.944-4.368-11.744-6.552-27.856-6.552-48.336 0-20.208 2.184-36.32 6.552-48.336 6.28-17.2 17.2-25.944 32.768-25.944 15.296 0 26.216 8.736 32.768 25.944 4.368 12.016 6.552 28.128 6.552 48.336 0 20.48-2.184 36.592-6.552 48.336-6.552 17.472-17.472 25.944-32.768 25.944z"  horiz-adv-x="1024" />

    
    <glyph glyph-name="wb_iridescent" unicode="&#60448;" d="M212 44L152 106l76 76 60-60zM152 706l60 60 76-76-60-60zM872 104l-60-60-76 78 60 60z m-318-166h-84V64h84v-126z m258 828l60-60-76-76-60 60zM470 872h84v-126h-84V872z m-256-594v256h596v-256h-596z"  horiz-adv-x="1024" />

    
    <glyph glyph-name="debug" unicode="&#59681;" d="M512 329.144L347.432 493.712H182.864l164.568-164.568-164.568-164.568h164.568L512 329.144z m274.288-109.712v54.856H566.856v-109.712h219.432v54.856zM128 657.96C128 718.728 177.208 768 238.04 768h547.928c60.768 0 110.04-49.208 110.04-110.04v-547.928c0-60.768-49.208-110.04-110.04-110.04H238.04C177.272-0.008 128 49.2 128 110.032V657.96z"  horiz-adv-x="1024" />

    
    <glyph glyph-name="lightbulb_outline" unicode="&#59937;" d="M634 338c58 40 92 104 92 174 0 118-96 214-214 214S298 630 298 512c0-70 34-134 92-174l36-26v-98h172V312zM512 810c164 0 298-134 298-298 0-102-50-190-128-244v-98c0-24-18-42-42-42H384c-24 0-42 18-42 42V268c-78 54-128 142-128 244 0 164 134 298 298 298zM384 0v42h256V0c0-24-18-42-42-42h-172c-24 0-42 18-42 42z"  horiz-adv-x="1024" />

    
    <glyph glyph-name="replay_3" unicode="&#60193;" d="M572 248c0-7.528 13.84-14 22-14 4 0 8 0 12 4l8 10s4 8 4 12V346c0 4-4 8-4 12 0 4.672-15.12 14-20 14-4 0-10-2-14-6l-8-8s-4-8-4-12V260s4-8 4-12z m80 42c0-12 0-26-4-34l-12-26s-14-12-22-12-18-4-26-4c-20.248 0-32.296 9.152-46 16-8 4-8 14-12 26s-6 22-6 34V320c0 12 2 26 6 34l12 26S556 392 564 392s16 4 24 4 18 0 26-4 14-8 22-12 8-14 12-26 4-22 4-34v-30zM426 320c16.24 0 30 9.92 30 26v8s-4 4-4 8-4 4-8 4h-22s-4-4-8-4-4-4-4-8v-8h-44c0 19.792 17.64 46 36 46 4 0 16 4 20 4 17.344 0 35.264-5.632 48-12 10.128-5.064 16-24.216 16-38v-14s-4-8-4-12-4-8-8-8-10-6-14-10c8-4 18-8 22-16s8-18 8-26 0-18-4-22-8-12-12-16-14-8-22-8-18-4-26-4-16 0-20 4-14 4-22 8c-11.16 5.584-18 27.016-18 42h36v-8s4-4 4-8 4-4 8-4h22s4 4 8 4 4 4 4 8v22s-4 4-4 8-4 4-8 4h-26V320h16zM512 682c188 0 342-152 342-340S700 0 512 0 170 154 170 342H256c0-140 116-256 256-256s256 116 256 256-116 256-256 256v-172L298 640 512 854v-172z"  horiz-adv-x="1024" />

    
    <glyph glyph-name="wc" unicode="&#60449;" d="M704 640c-48 0-86 38-86 86S656 810 704 810s86-36 86-84S752 640 704 640z m-384 0c-48 0-86 38-86 86S272 810 320 810s86-36 86-84S368 640 320 640z m448-682H640v256H512l108 324c12 34 46 60 82 60h4c36 0 70-26 82-60l108-324H768v-256z m-534 0v320h-64V512c0 46 40 86 86 86h128c46 0 86-40 86-86v-234h-64v-320h-172z"  horiz-adv-x="1024" />

    
    <glyph glyph-name="delete_commet" unicode="&#59682;" d="M938.24 725.336l0.424-768L768 128H170.664c-46.936 0-85.336 38.4-85.336 85.336v512c0 46.936 38.4 85.336 85.336 85.336h682.664c46.936 0 84.904-38.4 84.904-85.336zM725.336 426.664V512H298.672v-85.336h426.664z"  horiz-adv-x="1024" />

    
    <glyph glyph-name="linear_scale" unicode="&#59938;" d="M832 490c58 0 106-48 106-106s-48-106-106-106c-44 0-82 26-98 64h-124c-16-38-54-64-98-64s-82 26-98 64h-124c-16-38-54-64-98-64-58 0-106 48-106 106s48 106 106 106c44 0 82-26 98-64h124c16 38 54 64 98 64s82-26 98-64h124c16 38 54 64 98 64z"  horiz-adv-x="1024" />

    
    <glyph glyph-name="restaurant" unicode="&#60194;" d="M682 640c0 76 96 170 214 170v-852H790v340h-108V640z m-212-128V810h84V512c0-90-70-164-160-170v-384H288v384c-90 6-160 80-160 170V810h86V512h84V810H384V512h86z"  horiz-adv-x="1024" />

    
    <glyph glyph-name="web_asset" unicode="&#60450;" d="M810 128V554h-596V128h596z m0 598c48 0 86-40 86-86v-512c0-46-40-86-86-86h-596c-48 0-86 40-86 86V640c0 46 38 86 86 86h596z"  horiz-adv-x="1024" />

    
    <glyph glyph-name="delete_sweep" unicode="&#59683;" d="M598 682v-84h-512v84h128l42 44h170l44-44h128zM128 128V554h426V128c0-46-38-86-84-86h-256C168 42 128 82 128 128z m512 256h256v-86H640V384z m0 170h298v-84H640v84z m0-340h170V128H640V214z"  horiz-adv-x="1024" />

    
    <glyph glyph-name="line_weight" unicode="&#59939;" d="M128 726h768v-172H128v172z m0-384v128h768v-128H128z m0-300v44h768v-44H128z m0 128V256h768v-86H128z"  horiz-adv-x="1024" />

    
    <glyph glyph-name="restore_page" unicode="&#60195;" d="M512 128c118 0 214 96 214 214s-96 212-214 212c-76 0-142-40-180-98l-54 56v-170H448l-68 68c24 48 74 80 132 80 82 0 150-66 150-148S594 192 512 192c-50 0-96 26-122 64H316c32-76 108-128 196-128z m86 682l256-256v-512c0-46-40-84-86-84H256c-46 0-86 38-86 84l2 684c0 46 38 84 84 84h342z"  horiz-adv-x="1024" />

    
    <glyph glyph-name="web" unicode="&#60451;" d="M854 128V512h-172v-384h172zM640 342V512H170v-170H640zM640 128V298H170V128H640z m214 598c46 0 84-40 84-86v-512c0-46-38-86-84-86h-684c-46 0-84 40-84 86V640c0 46 38 86 84 86h684z"  horiz-adv-x="1024" />

    
    <glyph glyph-name="delete" unicode="&#59684;" d="M810 726V640h-596V726h148l44 42h212l44-42h148z m-554-640v512h512v-512C768 40 728 0 682 0h-340C296 0 256 40 256 86z"  horiz-adv-x="1024" />

    
    <glyph glyph-name="link" unicode="&#59940;" d="M726 598c118 0 212-96 212-214s-94-214-212-214h-172V252h172c72 0 132 60 132 132s-60 132-132 132h-172V598h172z m-384-256v84h340v-84h-340z m-176 42c0-72 60-132 132-132h172v-82h-172c-118 0-212 96-212 214s94 214 212 214h172V516h-172c-72 0-132-60-132-132z"  horiz-adv-x="1024" />

    
    <glyph glyph-name="return" unicode="&#60196;" d="M390.952 322.856h426v-182.568h121.712V444.576H390.952V688.008L86.664 383.72l304.288-304.288z"  horiz-adv-x="1024" />

    
    <glyph glyph-name="widgets" unicode="&#60452;" d="M710 824L952 582l-242-240H896V0H554V342h156l-240 240v-156H128V768h342v-186zM128 0V342h342V0H128z"  horiz-adv-x="1024" />

    
    <glyph glyph-name="description" unicode="&#59685;" d="M554 512h236l-236 234V512z m128-214V384h-340v-86h340z m0-170V214h-340V128h340z m-84 682l256-256v-512c0-46-40-84-86-84H256c-46 0-86 38-86 84l2 684c0 46 38 84 84 84h342z"  horiz-adv-x="1024" />

    
    <glyph glyph-name="link1" unicode="&#59941;" d="M340.136 85c-52.576 30.352-65.696 106.304-29.28 169.392l85.2 147.568-58.416 33.728-85.2-147.568c-58.792-101.824-37.632-224.224 47.224-273.216s201.432-6.112 260.224 95.712l85.2 147.568-58.416 33.728-85.2-147.568c-36.424-63.088-108.768-89.696-161.336-59.344z m118.072 133.512l170.4 295.144-61.488 35.504-170.4-295.144 61.488-35.504z m7.24 438.536l-85.2-147.568 58.416-33.728 85.2 147.568c36.424 63.088 108.768 89.696 161.336 59.344s65.696-106.304 29.272-169.392l-85.2-147.568 58.416-33.728 85.2 147.568c58.792 101.824 37.632 224.224-47.224 273.216s-201.432 6.112-260.224-95.712z"  horiz-adv-x="1024" />

    
    <glyph glyph-name="report_overview" unicode="&#60197;" d="M675.416 58.408h3.64c-37.976 4.792-58.144 20.168-68.968 35.744H413.808c-10.72-15.576-30.992-30.944-68.968-35.744h2.36c-11.904 0-21.352-9.784-21.352-21.664 0-11.984 9.64-21.664 21.352-21.664h328.216c11.904 0 21.352 9.784 21.352 21.664a21.24 21.24 0 0 1-21.352 21.664z m164.704 692.528H183.792c-30.792 0-55.784-25.36-55.784-56.504v-516.624c0.984-26.56 22.632-47.92 49.192-47.92h669.416c26.56 0 48.016 21.264 49.192 47.92l0.2 93.44V694.424c-0.096 31.144-24.992 56.504-55.88 56.504zM556.568 184.2a12.4 12.4 0 0 0-12.296-12.48h-64.64a12.392 12.392 0 0 0-12.296 12.48v8.688c0 6.888 5.512 12.48 12.296 12.48h64.544c6.792 0 12.296-5.592 12.296-12.48v-8.688h0.096z m266.136 76.944c0-5.424-4.232-9.864-9.64-9.864H215.104c-5.408 0-9.84 4.44-9.84 9.864V659.136c0 5.424 4.424 9.864 9.84 9.864h597.768c5.408 0 9.84-4.44 9.84-9.864v-397.992zM672.072 486.592h24.696l0.784 0.8c0 7.688-0.592 15.576-1.768 23.264l-23.712-24.064z m-56.568 141.96l-78.216-79.264v-24.96L630.56 618.872a154.184 154.184 0 0 1-15.056 9.688z m-34.728 14.576l-43.488-44.024v-24.96l61.688 62.496a150.896 150.896 0 0 1-18.2 6.488z m-43.192 6.096l-0.296-0.304v-24.96l23.216 23.56a174.264 174.264 0 0 1-22.92 1.696z m60.896-162.632l78.608 79.664a141.024 141.024 0 0 1-9.64 15.176L573.88 486.592h24.6z m57.952 108.816c-1.872 2.096-3.84 4.192-5.808 6.288a195.864 195.864 0 0 1-6.496 6.288L537.28 499.464v-12.68h12l107.144 108.616z m-8.856-108.816l43.976 44.528a204.128 204.128 0 0 1-6.296 18.472l-62.08-62.992h24.4zM509.248 621.168c-88.84 0-160.96-73.08-160.96-163.128s72.12-163.128 160.96-163.128 160.96 73.08 160.96 163.128h-160.96V621.168z"  horiz-adv-x="1024" />

    
    <glyph glyph-name="wifi_lock" unicode="&#60453;" d="M938 214v64c0 36-28 64-64 64s-64-28-64-64v-64h128z m44 0c24 0 42-20 42-44V0c0-24-18-42-42-42H768c-24 0-42 18-42 42V170c0 24 18 44 42 44v64C768 336 816 384 874 384s108-48 108-106v-64z m-108 276c-118 0-212-94-212-212V156L512-42 0 640c142 108 320 170 512 170S882 748 1024 640l-114-152c-12 2-24 2-36 2z"  horiz-adv-x="1024" />

    
    <glyph glyph-name="delete_attach" unicode="&#59686;" d="M687.784 500.856L455.344 98.256c-44.672-77.368-143.512-103.856-220.88-59.184s-103.856 143.512-59.184 220.88l252.648 437.608c27.896 48.312 89.736 64.88 138.048 36.992s64.88-89.744 36.992-138.048L390.744 228.912c-11.12-19.256-35.968-25.912-55.224-14.8s-25.912 35.968-14.792 55.224l192.016 332.576-52.512 30.32-192.016-332.576c-27.896-48.312-11.32-110.16 36.992-138.048s110.16-11.32 138.048 36.992l212.224 367.592c44.672 77.368 18.184 176.216-59.184 220.88s-176.216 18.184-220.88-59.184L122.768 290.28c-61.448-106.424-25.048-242.272 81.376-303.712s242.272-25.048 303.712 81.376l232.44 402.6-52.512 30.32zM926.664 78.664H620V140h306.664z"  horiz-adv-x="1024" />

    
    <glyph glyph-name="list" unicode="&#59942;" d="M298 598H896V512H298V598z m0-428V256H896v-86H298z m0 172v84H896v-84H298zM128 512V598h86V512H128z m0-342V256h86v-86H128z m0 172v84h86v-84H128z"  horiz-adv-x="1024" />

    
    <glyph glyph-name="restore" unicode="&#60198;" d="M512 554h64v-180L726 284l-32-52L512 342v212zM554 768c212 0 384-172 384-384s-172-384-384-384c-106 0-200 42-270 112l60 62c54-54 128-88 210-88 166 0 300 132 300 298S720 682 554 682 256 550 256 384h128L212 212l-4 6L42 384h128c0 212 172 384 384 384z"  horiz-adv-x="1024" />

    
    <glyph glyph-name="weekend" unicode="&#60454;" d="M768 682c46 0 86-38 86-84v-92C804 488 768 442 768 386v-88H256v88c0 56-36 102-86 120v92c0 46 40 84 86 84h512z m128-212c46 0 86-40 86-86v-214c0-46-40-84-86-84H128c-46 0-86 38-86 84V384c0 46 40 86 86 86s86-40 86-86v-128h596V384c0 46 40 86 86 86z"  horiz-adv-x="1024" />

    
    <glyph glyph-name="desktop_mac" unicode="&#59687;" d="M896 298v428H128v-428h768z m0 512c46 0 86-38 86-84v-512c0-46-40-86-86-86H598l84-128v-42h-340V0l84 128H128c-46 0-86 40-86 86v512c0 46 40 84 86 84h768z"  horiz-adv-x="1024" />

    
    <glyph glyph-name="library_books" unicode="&#59943;" d="M810 598v84H384v-84h426zM640 256V342H384V256h256z m170 170V512H384v-86h426z m44 384c46 0 84-38 84-84v-512c0-46-38-86-84-86h-512C296 128 256 168 256 214v512c0 46 40 84 86 84h512zM170 640v-598H768v-84H170c-46 0-84 38-84 84V640h84z"  horiz-adv-x="1024" />

    
    <glyph glyph-name="room_service" unicode="&#60199;" d="M590 564c166-34 294-176 306-350H128c12 174 140 316 306 350-4 10-8 22-8 34 0 46 40 84 86 84s86-38 86-84c0-12-4-24-8-34z m-504-394h852v-84H86v84z"  horiz-adv-x="1024" />

    
    <glyph glyph-name="whatshot" unicode="&#60455;" d="M500 86C614 86 704 176 704 290c0 60-8 116-24 172C636 404 558 368 482 352s-120-62-120-132c0-74 62-134 138-134zM576 868c166-134 278-340 278-570 0-188-154-340-342-340s-342 152-342 340c0 144 52 278 138 380v-16c0-88 66-158 154-158S608 574 608 662c0 92-32 206-32 206z"  horiz-adv-x="1024" />

    
    <glyph glyph-name="desktop_windows" unicode="&#59688;" d="M896 214v512H128v-512h768z m0 596c46 0 86-38 86-84v-512c0-46-40-86-86-86H598v-86h84v-84h-340v84h84V128H128c-46 0-86 40-86 86v512c0 46 40 84 86 84h768z"  horiz-adv-x="1024" />

    
    <glyph glyph-name="live_help" unicode="&#59944;" d="M642 458c24 24 40 58 40 96 0 94-76 172-170 172S342 648 342 554h84C426 600 466 640 512 640s86-40 86-86c0-24-10-44-26-60L520 440c-30-32-50-74-50-120v-22h84c0 64 20 90 50 122zM554 128V214h-84V128h84z m256 682c46 0 86-38 86-84V128c0-46-40-86-86-86H640l-128-128-128 128H214c-48 0-86 40-86 86V726c0 46 38 84 86 84h596z"  horiz-adv-x="1024" />

    
    <glyph glyph-name="rocket" unicode="&#60200;" d="M793.976 619a45.648 45.648 0 0 1-91.28 0 45.648 45.648 0 0 1 91.28 0z m106.496 136.928c0-157.848-43.744-262.92-156.424-376.08-27.576-27.104-58.96-55.152-92.712-83.68l-9.512-180.192c-0.472-4.752-3.328-9.512-7.608-12.36l-182.576-106.504c-2.376-1.424-4.752-1.904-7.608-1.904-3.8 0-7.608 1.424-10.936 4.28l-30.424 30.424c-3.8 4.28-5.232 9.984-3.8 15.216l40.408 131.224-133.6 133.6-131.224-40.416c-1.424-0.472-2.856-0.472-4.28-0.472-3.8 0-8.08 1.424-10.936 4.28l-30.424 30.424c-4.752 5.232-5.704 12.84-2.376 18.544l106.496 182.576c2.856 4.28 7.608 7.128 12.36 7.608l180.192 9.512c28.528 33.76 56.576 65.136 83.68 92.712 118.864 118.384 209.672 156.424 375.128 156.424 8.56 0 16.168-6.656 16.168-15.216z"  horiz-adv-x="1024" />

    
    <glyph glyph-name="wifi_tethering" unicode="&#60456;" d="M512 768c236 0 426-190 426-426 0-158-84-296-212-370l-44 74c102 60 172 170 172 296 0 188-154 340-342 340s-342-152-342-340c0-126 68-236 170-296l-42-74c-128 74-212 212-212 370C86 578 276 768 512 768z m256-426C768 248 716 164 640 120l-42 74c50 30 84 84 84 148C682 436 606 512 512 512s-170-76-170-170c0-64 34-118 84-148L384 120c-76 44-128 128-128 222 0 142 114 256 256 256s256-114 256-256z m-256 84c46 0 86-38 86-84S558 256 512 256s-86 40-86 86 40 84 86 84z"  horiz-adv-x="1024" />

    
    <glyph glyph-name="delete_forever" unicode="&#59689;" d="M662 726h148V640h-596V726h148l44 42h212zM360 390l92-92L362 208l60-60L512 238 602 148l60 60L572 298l90 92-60 60L512 358l-90 92z m-104-304v512h512v-512C768 40 728 0 682 0h-340C296 0 256 40 256 86z"  horiz-adv-x="1024" />

    
    <glyph glyph-name="live_tv" unicode="&#59945;" d="M384 470l298-172L384 128V470z m512-428v512H128v-512h768zM896 640c46 0 86-38 86-86v-512c0-46-40-84-86-84H128c-46 0-86 38-86 84v512c0 48 40 86 86 86h324L312 780l30 30L512 640l170 170L712 780 572 640H896z"  horiz-adv-x="1024" />

    
    <glyph glyph-name="room" unicode="&#60201;" d="M512 406c58 0 106 48 106 106s-48 106-106 106-106-48-106-106 48-106 106-106z m0 404c166 0 298-132 298-298 0-224-298-554-298-554S214 288 214 512c0 166 132 298 298 298z"  horiz-adv-x="1024" />

    
    <glyph glyph-name="work_log" unicode="&#60457;" d="M810 767.336c46 0 86-38 86-84v-684c0-46-40-84-86-84h-596c-46 0-86 38-86 84v684c0 46 40 84 86 84H392c18 50 64 86 120 86s102-36 120-86h178z m-298 0c-24 0-42-18-42-42s18-42 42-42 42 18 42 42-18 42-42 42z m298-768v684h-84v-128h-428v128h-84v-684h596z m-84.664 450V364H298.672V449.336h426.664z m-128-170.672v-85.336H298.672V278.664h298.664z"  horiz-adv-x="1024" />

    
    <glyph glyph-name="develop_console" unicode="&#59690;" d="M308.216 283.984l133.968 81.112V527.424l-69.816 36.808V714.624l104.728 53.368v-134.864l34.912-17.144v-125.336l139.632 73.624v150.32l-104.728 51.832v-132.848L512 615.992v-125.336l69.816 36.776v-162.328l134.016-81.144 65.248 45.032L896 259.104v-110.984l-97.392 58.968-44.464-30.736 0.168-0.104-3.488-56.04 103.44-62.632L765.944 0l-124.136 75.232 9.064 163.448-0.272 0.16-4.536-81.784-134.048 81.168-133.984-81.128 4.544-81.864L258.44 0l-88.672 57.576 103.4 62.632-3.136 56.008-44.616 30.84-97.4-58.968 0.032 109.44 115.2 71.424 64.976-44.96z m58.456-40.448l6.76-4.68L512 322.392 373.408 238.88l-6.744 4.656z"  horiz-adv-x="1024" />

    
    <glyph glyph-name="local_airport" unicode="&#59946;" d="M896 214L554 320v-234l86-64v-64L490 0l-148-42v64l84 64V320l-340-106v84L426 512V746c0 36 28 64 64 64s64-28 64-64V512L896 298v-84z"  horiz-adv-x="1024" />

    
    <glyph glyph-name="role_tag" unicode="&#60202;" d="M135.792 81.496l54.752-22.88V427.56L91.256 188.136c-16.752-41.672 3.272-89.48 44.536-106.64z m796.728 151.176L729.864 721.744c-12.664 30.64-42.488 49.44-73.952 50.256-10.624 0-21.656-1.632-32.28-6.128l-301.12-124.616c-30.64-12.664-49.44-42.088-50.256-73.544a76.224 76.224 0 0 1 6.128-32.688l202.656-489.072c12.664-31.056 42.904-49.848 74.768-50.256 10.624 0 21.248 2.04 31.464 6.128l300.712 124.616c41.672 17.16 61.696 64.96 44.536 106.232z m-659.856-155.256v259.04l140.96-340.752h-59.248c-44.944 0-81.72 36.776-81.72 81.72zM544.48 537.4c39.304 15.88 83.848-3.032 99.728-42.328s-3.032-83.848-42.328-99.728c-39.304-15.88-83.848 3.032-99.728 42.328s3.032 83.848 42.336 99.728z m256.856-226.72L517.216 195.888l-13.392 33.144c-19.136 47.352 65.048 111.664 112.408 130.792s152.584 31.352 171.712-16l13.392-33.144z"  horiz-adv-x="1024" />

    
    <glyph glyph-name="work" unicode="&#60458;" d="M598 640V726h-172V640h172z m256 0c48 0 84-38 84-86v-468c0-48-36-86-84-86h-684c-48 0-84 38-84 86v468c0 48 36 86 84 86h172V726c0 48 36 84 84 84h172c48 0 84-36 84-84V640h172z"  horiz-adv-x="1024" />

    
    <glyph glyph-name="developer_mode" unicode="&#59691;" d="M726 86v84h84V0c0-46-38-86-84-86h-428c-46 0-84 40-84 86V170h84v-84h428zM426 248l-60-60L170 384l196 196 60-60L292 384z m232-60l-60 60L732 384 598 520l60 60 196-196z m-360 494v-84h-84V768c0 46 38 86 84 86l428-2c46 0 84-38 84-84v-170h-84v84h-428z"  horiz-adv-x="1024" />

    
    <glyph glyph-name="local_atm" unicode="&#59947;" d="M854 128V640h-684v-512h684z m0 598c48 0 84-38 84-86v-512c0-48-36-86-84-86h-684c-48 0-84 38-84 86V640c0 48 36 86 84 86h684z m-384-556v44H384v84h170v44h-128C402 342 384 360 384 384V512c0 24 18 42 42 42h44v44h84v-44H640v-84H470v-44h128c24 0 42-18 42-42v-128c0-24-18-42-42-42h-44v-44h-84z"  horiz-adv-x="1024" />

    
    <glyph glyph-name="root" unicode="&#60203;" d="M468.168 153.536V409.424h-130.4v-89.976c30.424-16.08 52.16-46.944 52.16-83.896 0-52.6-43.032-95.632-95.632-95.632s-95.632 43.032-95.632 95.632c0 36.944 21.736 67.808 52.16 83.896V409.432A86.64 86.64 0 0 0 337.76 496.368h130.4V628.952C437.296 645.032 416 676.768 416 713.72c0 53.032 43.032 95.632 95.632 95.632s95.632-42.6 95.632-95.632c0-36.952-21.296-68.68-52.16-84.768v-132.584h130.36A86.64 86.64 0 0 0 772.4 409.432v-89.984c30.424-16.08 52.16-46.944 52.16-83.896 0-52.6-43.032-95.632-95.632-95.632s-95.632 43.032-95.632 95.632c0 36.944 21.736 67.808 52.16 83.896V409.432H555.096v-255.456c35.408-16.296 59.992-52.088 59.992-93.624 0-56.888-46.112-103.008-103-103.008s-103 46.12-103 103.008c0 41.176 24.16 76.704 59.08 93.192z"  horiz-adv-x="1024" />

    
    <glyph glyph-name="wifi" unicode="&#60459;" d="M214 342c166 164 432 164 596 0L726 256C608 374 416 374 298 256zM384 170c70 70 186 70 256 0l-128-128zM42 512c260 258 682 258 940 0L896 426c-212 212-556 212-768 0z"  horiz-adv-x="1024" />

    
    <glyph glyph-name="device_hub" unicode="&#59692;" d="M726 214H896V0H682V130L512 310l-170-180V0H128V214h170L470 384V520C420 538 384 584 384 640c0 70 58 128 128 128s128-58 128-128c0-56-36-102-86-120v-136z"  horiz-adv-x="1024" />

    
    <glyph glyph-name="local_bar" unicode="&#59948;" d="M318 598h388l76 84h-540zM896 682l-342-384v-212H768V0H256v86h214v212L128 682V768h768v-86z"  horiz-adv-x="1024" />

    
    <glyph glyph-name="rotate_left" unicode="&#60204;" d="M554 722c168-20 300-164 300-338s-132-318-300-338V132C676 152 768 258 768 384S676 616 554 636v-166L360 660 554 854v-132z m-252-608L364 176c32-24 68-38 106-44v-86c-60 8-118 30-168 68z m-42 228C266 304 280 268 302 236l-60-60c-38 50-60 106-68 166H260zM304 532c-22-32-38-68-44-106H174c8 60 32 116 70 166z"  horiz-adv-x="1024" />

    
    <glyph glyph-name="wrap_text" unicode="&#60460;" d="M726 426C820 426 896 350 896 256s-76-170-170-170H640V0L512 128l128 128v-86h96c46 0 86 40 86 86s-40 86-86 86H170v84h556z m128 256v-84h-684v84h684z m-684-596v84h256v-84h-256z"  horiz-adv-x="1024" />

    
    <glyph glyph-name="devices_other" unicode="&#59693;" d="M896 128V470H726V128H896z m42 426c22 0 44-20 44-42v-426c0-22-22-44-44-44h-256c-22 0-42 22-42 44V512c0 22 20 42 42 42h256z m-468-404c36 0 64 28 64 64s-28 64-64 64-64-28-64-64 28-64 64-64zM554 384v-76c26-24 44-56 44-94s-18-72-44-96v-76H384v76c-26 24-42 58-42 96s16 70 42 94V384h170zM128 640v-512h170v-86H128c-46 0-86 40-86 86V640c0 46 40 86 86 86h768V640H128z"  horiz-adv-x="1024" />

    
    <glyph glyph-name="local_cafe" unicode="&#59949;" d="M86 0v86h768V0h-768z m768 554v128H768v-128h86z m0 214c48 0 84-38 84-86v-128c0-48-36-84-84-84H768v-128c0-94-76-172-170-172h-256c-94 0-172 78-172 172V768h684z"  horiz-adv-x="1024" />

    
    <glyph glyph-name="ring_volume" unicode="&#60205;" d="M274 478s-148 148-152 150l60 62 152-152z m280 332v-212h-84v212h84z m348-182c-4-2-152-150-152-150l-60 60 152 152zM1012 184c8-8 12-18 12-30s-4-22-12-30l-106-106c-8-8-18-12-30-12s-22 4-30 12c-34 32-72 60-114 80-14 6-24 22-24 38V268c-62 20-128 30-196 30S378 288 316 268V136c0-18-10-34-24-40-42-20-80-46-114-78-8-8-18-12-30-12s-22 4-30 12L12 124c-8 8-12 18-12 30S4 176 12 184C142 308 318 384 512 384s370-76 500-200z"  horiz-adv-x="1024" />

    
    <glyph glyph-name="wait_four_b" unicode="&#60461;" d="M512.664 809.336c236 0 426-190 426-426s-190-426-426-426-426 190-426 426 190 426 426 426z m32.776-192L317.336 323.216v-72.552h225.488v-100h72.552v100h69.28v60.784h-69.28V617.328H545.44z m-4.576-96.736h1.96v-209.152H379.424l161.44 209.152z"  horiz-adv-x="1024" />

    
    <glyph glyph-name="Development-monitori" unicode="&#59694;" d="M425.2 220.744a9.152 9.152 0 0 1-3.576 6.016l-98.528 73.68 98.528 73.68a9.136 9.136 0 0 1 1.848 12.8l-15.648 20.928a9.144 9.144 0 0 1-12.8 1.848L258.712 307.76a9.168 9.168 0 0 1 0-14.656l136.312-101.936a9.144 9.144 0 0 1 12.808 1.84l15.648 20.928c1.456 1.944 2.072 4.384 1.728 6.784z m340.368 87.032L629.264 409.712a9.144 9.144 0 0 1-12.8-1.848l-15.656-20.928a9.144 9.144 0 0 1 1.848-12.8l98.528-73.68-98.528-73.68a9.12 9.12 0 0 1-1.848-12.8l15.656-20.928a9.136 9.136 0 0 1 12.808-1.84l136.304 101.936a9.168 9.168 0 0 1 0 14.656zM599.6 464.12l-24.072 10.184a9.12 9.12 0 0 1-11.984-4.856L419.8 129.472a9.144 9.144 0 0 1 4.864-11.984l24.072-10.176a9.16 9.16 0 0 1 11.984 4.864l143.744 339.976a9.144 9.144 0 0 1-4.864 11.984zM891.864 788.12H132.4a45.792 45.792 0 0 1-45.736-45.736v-715.224a45.792 45.792 0 0 1 45.736-45.736h759.464a45.792 45.792 0 0 1 45.736 45.736V742.384a45.792 45.792 0 0 1-45.736 45.736z m-90.496-70.128c20.896 0 37.896-17 37.896-37.896s-17-37.896-37.896-37.896-37.896 17-37.896 37.896 17 37.896 37.896 37.896z m-128.512 0c20.896 0 37.896-17 37.896-37.896s-17-37.896-37.896-37.896-37.896 17-37.896 37.896 17 37.896 37.896 37.896z m-470.152-18.288h152.888a19.6 19.6 0 0 0 0-39.2H202.704a19.6 19.6 0 0 0 0 39.2z m662.256-639.032a5.976 5.976 0 0 0-5.968-5.968H165.288a5.976 5.976 0 0 0-5.968 5.968V553.24h705.648v-492.568z"  horiz-adv-x="1024" />

    
    <glyph glyph-name="local_drink" unicode="&#59950;" d="M782 554l18 172H224l18-172h540zM512 86c70 0 128 58 128 128C640 300 512 444 512 444s-128-144-128-230c0-70 58-128 128-128z m-384 724h768L810 32c-6-42-40-74-84-74h-428c-44 0-78 32-84 74z"  horiz-adv-x="1024" />

    
    <glyph glyph-name="rotate__degrees_cc" unicode="&#60206;" d="M826 612c150-150 150-392 0-542-74-76-174-112-272-112-64 0-126 16-184 48l64 62c38-18 78-26 120-26 76 0 154 30 212 88 116 116 116 306 0 422-58 58-136 88-212 88v-138l-180 180L554 864v-138c98 0 198-38 272-114z m-668-266l156-156 156 156-156 156z m156 276l276-276-276-276L36 346z"  horiz-adv-x="1024" />

    
    <glyph glyph-name="wrench" unicode="&#60462;" d="M921.136 128.832L537.944 457.288a238.536 238.536 0 0 1 27.968 112.424c0 132.344-107.28 239.624-239.624 239.624-24.208 0-47.568-3.6-69.6-10.28l138.44-138.44c20.712-20.712 20.712-54.6 0-75.304L310.688 500.872c-20.712-20.712-54.6-20.712-75.304 0L96.944 639.312a239.752 239.752 0 0 1-10.28-69.6c0-132.344 107.288-239.624 239.624-239.624a238.56 238.56 0 0 1 112.424 27.976l328.456-383.192c19.056-22.232 51.6-23.488 72.304-2.776l84.448 84.448c20.704 20.704 19.456 53.248-2.776 72.304z"  horiz-adv-x="1024" />

    
    <glyph glyph-name="details" unicode="&#59695;" d="M272 640l240-426L752 640H272zM128 726h768l-384-684z"  horiz-adv-x="1024" />

    
    <glyph glyph-name="local_car_wash" unicode="&#59951;" d="M214 342h596l-64 192h-468zM746 128c36 0 64 28 64 64s-28 64-64 64-64-28-64-64 28-64 64-64z m-468 0c36 0 64 28 64 64s-28 64-64 64-64-28-64-64 28-64 64-64zM808 554l88-256v-340c0-24-18-44-42-44h-44c-24 0-42 20-42 44V0H256v-42c0-24-18-44-42-44h-44c-24 0-42 20-42 44v340l88 256c8 26 34 44 62 44h468c28 0 54-18 62-44z m-510 128c-36 0-64 28-64 64 0 42 64 116 64 116s64-74 64-116c0-36-28-64-64-64z m214 0c-36 0-64 28-64 64 0 42 64 116 64 116s64-74 64-116c0-36-28-64-64-64z m214 0c-36 0-64 28-64 64 0 42 64 116 64 116s64-74 64-116c0-36-28-64-64-64z"  horiz-adv-x="1024" />

    
    <glyph glyph-name="rotate_right" unicode="&#60207;" d="M720 236c24 32 38 68 44 106h86c-8-60-30-116-68-166z m-166-104C592 138 628 152 660 176l62-62c-50-38-108-60-168-68V132z m296 294H764C758 464 744 500 720 532l62 60c38-50 60-106 68-166zM664 660L470 470V636C348 616 256 510 256 384s92-232 214-252v-86c-168 20-300 164-300 338s132 318 300 338V854z"  horiz-adv-x="1024" />

    
    <glyph glyph-name="zoom_out_map" unicode="&#60463;" d="M896 256v-256H640l98 98-124 122 62 62 122-124z m-512-256H128V256l98-98 122 124 62-62-124-122zM128 512V768h256L286 670l124-122-62-62-122 124z m512 256h256v-256L798 610 676 486l-62 62 124 122z"  horiz-adv-x="1024" />

    
    <glyph glyph-name="developer_board" unicode="&#59696;" d="M512 426h170v-256H512v256z m-256 172h214V384H256V598z m256 0h170v-128H512v128z m-256-256h214v-172H256v172z m512-256v596H170v-596H768zM938 512h-84v-86h84v-84h-84V256h84v-86h-84v-84c0-46-40-86-86-86H170c-46 0-84 40-84 86v596C86 728 124 768 170 768H768c46 0 86-40 86-86v-84h84V512z"  horiz-adv-x="1024" />

    
    <glyph glyph-name="local_convenience_st" unicode="&#59952;" d="M682 384V598H640V512h-42V598h-44v-128H640V384h42z m-212 86v128h-128v-44h84V512h-84v-128h128v42H384v44h86z m340 128h128v-556h-340v172h-172v-172h-340v556h128v128h596v-128z"  horiz-adv-x="1024" />

    
    <glyph glyph-name="rounded_corner" unicode="&#60208;" d="M896 554v-212h-86v212c0 70-58 128-128 128h-212V768h212C800 768 896 672 896 554zM128 0v86h86V0H128z m170 0v86H384V0H298z m172 0v86h84V0h-84z m-172 682V768H384v-86H298z m-170 0V768h86v-86H128zM128 512V598h86V512H128z m0-342V256h86v-86H128z m0 172v84h86v-84H128z m682-172V256H896v-86h-86z m0-84H896V0h-86v86z"  horiz-adv-x="1024" />

    
    <glyph glyph-name="zoom_in" unicode="&#60464;" d="M512 470H426V384H384V470H298V512H384V598h42V512H512v-42z m-106-172c106 0 192 86 192 192s-86 192-192 192-192-86-192-192 86-192 192-192z m256 0l212-212-64-64-212 212V268l-12 12c-48-42-112-66-180-66C252 214 128 336 128 490S252 768 406 768s276-124 276-278c0-68-24-132-66-180l12-12h34z"  horiz-adv-x="1024" />

    
    <glyph glyph-name="devops_chart" unicode="&#59697;" d="M558.936 296.592c-31.176-35.352-76.72-57.656-127.432-57.656-93.896 0-171.232 76.456-171.232 170.664s77.336 170.664 171.232 170.664c50.712 0 96.256-22.304 127.432-57.656 31.176 35.352 76.72 57.656 127.432 57.656 93.896 0 171.232-76.456 171.232-170.664s-77.336-170.664-171.232-170.664c-50.712 0-96.256 22.304-127.432 57.656zM768 85.336H128V554.672h-42.664l85.336 170.664 85.336-170.664h-42.664v-384h554.664v42.664L938.672 128l-170.664-85.336v42.664zM686.936 324.264c46.936 0 85.336 38.4 85.336 85.336s-38.4 85.336-85.336 85.336S601.6 456.536 601.6 409.6 640 324.264 686.936 324.264z m-256 0c46.936 0 85.336 38.4 85.336 85.336s-38.4 85.336-85.336 85.336S345.6 456.536 345.6 409.6 384 324.264 430.936 324.264z"  horiz-adv-x="1024" />

    
    <glyph glyph-name="local_hospital" unicode="&#59953;" d="M768 298v172H598V640h-172v-170H256v-172h170V128h172V298H768zM810 768C856 768 896 728 896 682v-596c0-46-40-86-86-86h-596C168 0 128 40 128 86v596C128 728 168 768 214 768h596z"  horiz-adv-x="1024" />

    
    <glyph glyph-name="routeroutline" unicode="&#60209;" d="M363.32 190.168l-94.088-109.784H86.664V262.952h91.288l60.248 70.288 125.12-143.072z m210.208 245.256l60.856 70.96h60.856V688.952H543.096L449.616 579.896 573.52 435.424z m121.712-50.76v426l243.432-213-243.432-213zM86.664 688.952h182.568l365.144-426h60.856v-182.568H543.088l-365.144 426H86.656V688.952z m608.576-730.288v426l243.432-213-243.432-213z"  horiz-adv-x="1024" />

    
    <glyph glyph-name="zoom_out" unicode="&#60465;" d="M298 512H512v-42H298V512z m108-214c106 0 192 86 192 192s-86 192-192 192-192-86-192-192 86-192 192-192z m256 0l212-212-64-64-212 212V268l-12 12c-48-42-112-66-180-66C252 214 128 336 128 490S252 768 406 768s276-124 276-278c0-68-24-132-66-180l12-12h34z"  horiz-adv-x="1024" />

    
    <glyph glyph-name="directions_bike" unicode="&#59698;" d="M810 22c82 0 150 66 150 148S892 320 810 320s-148-68-148-150 66-148 148-148z m0 362c120 0 214-94 214-214s-94-212-214-212-212 92-212 212S690 384 810 384zM460 448l94-98v-264h-84v212l-138 120c-18 12-24 34-24 60 0 22 6 42 24 60l120 120c12 18 34 24 60 24s46-6 68-24L662 576c38-38 88-64 152-64v-86c-90 0-160 34-216 90l-34 34z m-246-426c82 0 148 66 148 148S296 320 214 320 64 252 64 170s68-148 150-148z m0 362c120 0 212-94 212-214s-92-212-212-212S0 50 0 170 94 384 214 384z m448 278C616 662 576 700 576 746S616 832 662 832s84-40 84-86-38-84-84-84z"  horiz-adv-x="1024" />

    
    <glyph glyph-name="local_hotel" unicode="&#59954;" d="M810 598c94 0 172-78 172-172v-384H896v128H128v-128H42v640H128v-384h342v300h340z m-512-256c-70 0-128 58-128 128s58 128 128 128 128-58 128-128-58-128-128-128z"  horiz-adv-x="1024" />

    
    <glyph glyph-name="rowing" unicode="&#60210;" d="M896 0l-128-128-128 128v64L338 366c-14-2-28-2-40-2V456c70-2 154 36 200 86l60 66c15.216 15.216 40.304 32 70 32h2c52 0 96-44 96-96v-246c0-36-16-68-40-92l-152 152V456C508 434 472 412 436 396L704 128h64zM640 854c46 0 86-40 86-86s-40-86-86-86-86 40-86 86S594 854 640 854z m-278-576l108-108H384l-150-148-64 64z"  horiz-adv-x="1024" />

    
    <glyph glyph-name="youtube_searched_for" unicode="&#60466;" d="M726 298l212-212-62-64L662 236v32l-12 12c-48-42-112-66-180-66-52 0-100 14-142 38l64 62c24-10 50-16 78-16 106 0 192 86 192 192s-86 192-192 192-192-86-192-192h148L250 320l-164 170H192C192 640 316 768 470 768S748 644 748 490c0-70-26-132-68-180l12-12h34z"  horiz-adv-x="1024" />

    
    <glyph glyph-name="dialpad" unicode="&#59699;" d="M512 854c46 0 86-40 86-86s-40-86-86-86-86 40-86 86S466 854 512 854z m0-256c46 0 86-40 86-86s-40-86-86-86-86 40-86 86 40 86 86 86z m256 0c46 0 86-40 86-86s-40-86-86-86-86 40-86 86 40 86 86 86z m0-256c46 0 86-40 86-86s-40-86-86-86-86 40-86 86 40 86 86 86z m-256 0c46 0 86-40 86-86s-40-86-86-86-86 40-86 86 40 86 86 86z m256 340c-46 0-86 40-86 86S722 854 768 854s86-40 86-86-40-86-86-86z m-512-340c46 0 86-40 86-86s-40-86-86-86-86 40-86 86 40 86 86 86z m0 256c46 0 86-40 86-86s-40-86-86-86-86 40-86 86 40 86 86 86z m0 256c46 0 86-40 86-86s-40-86-86-86-86 40-86 86S210 854 256 854z m256-768c46 0 86-40 86-86s-40-86-86-86-86 40-86 86 40 86 86 86z"  horiz-adv-x="1024" />

    
    <glyph glyph-name="local_florist" unicode="&#59955;" d="M512 662c-58 0-106-50-106-108S454 448 512 448s106 48 106 106-48 108-106 108z m-274-204c0 42 26 78 62 96-36 18-62 54-62 96 0 58 50 108 108 108 22 0 42-8 60-20v8c0 58 48 108 106 108s106-50 106-108v-8c18 12 38 20 60 20 58 0 108-50 108-108 0-42-26-78-62-96 36-18 62-54 62-96C786 400 736 352 678 352c-22 0-42 6-60 18v-8C618 304 570 256 512 256s-106 48-106 106v8C388 358 368 352 346 352c-58 0-108 48-108 106zM512-42c-212 0-384 172-384 384 212 0 384-172 384-384z m0 0c0 212 172 384 384 384 0-212-172-384-384-384z"  horiz-adv-x="1024" />

    
    <glyph glyph-name="router" unicode="&#60211;" d="M640 128V214H554V128H640z m-150 0V214h-84V128h84z m-148 0V214H256V128h86z m468 214c46 0 86-40 86-86v-170c0-46-40-86-86-86h-596C168 0 128 40 128 86V256c0 46 40 86 86 86H640V512h86v-170h84z m14 268L790 576C760 606 720 618 682 618S606 606 576 576l-34 34c38 38 88 60 140 60s104-22 142-60z m38 34c-52 46-116 72-180 72S556 690 504 644l-34 34c60 60 136 90 212 90S836 738 896 678z"  horiz-adv-x="1024" />

    
    <glyph glyph-name="iconjavapx" unicode="&#59058;" d="M505.344 652.544c-39.466667-27.733333-84.138667-59.136-108.074667-111.146667-41.6-90.752 85.12-189.696 90.496-193.877333a6.954667 6.954667 0 0 1 8.789334 0.170667 6.997333 6.997333 0 0 1 1.706666 8.618666c-0.426667 0.853333-45.952 89.173333-44.245333 152.576 0.597333 22.058667 31.488 47.104 64.170667 73.6 29.952 24.32 63.914667 51.797333 83.797333 84.010667 43.605333 70.826667-4.864 140.544-5.376 141.226667a6.997333 6.997333 0 0 1-12.544-5.546667c0.085333-0.426667 9.514667-46.506667-16.682667-93.994667-10.837333-19.626667-34.56-36.266667-62.037333-55.637333zM671.445333 621.312a6.997333 6.997333 0 0 1-6.698666 12.117333c-6.698667-2.56-164.010667-63.189333-164.010667-136.448 0-50.517333 21.546667-77.226667 37.333333-96.682666 6.186667-7.68 11.52-14.250667 13.226667-19.882667 4.992-16.213333-6.741333-45.610667-11.690667-55.552a6.997333 6.997333 0 0 1 10.24-8.832c2.730667 1.877333 66.133333 46.72 54.784 100.693333-4.266667 20.565333-14.336 35.541333-23.253333 48.810667-13.781333 20.48-23.722667 35.285333-8.618667 62.677333 17.706667 31.872 97.877333 92.501333 98.688 93.098667zM261.930667 313.6a24.832 24.832 0 0 1 3.669333-23.168c17.066667-23.68 77.482667-36.693333 170.112-36.693333 12.544 0 25.813333 0.213333 39.381333 0.725333 148.138667 5.290667 203.093333 51.456 205.354667 53.418667a6.997333 6.997333 0 0 1-6.4 12.032c-52.181333-14.250667-149.632-19.328-217.173333-19.328-75.605333 0-114.133333 5.461333-123.52 9.472 4.821333 6.656 34.645333 18.517333 71.637333 25.770666a6.997333 6.997333 0 0 1-1.365333 13.866667c-21.674667 0-130.346667-1.706667-141.696-36.096zM757.589333 361.130667c-30.549333 0-59.52-15.317333-60.757333-15.957334a6.997333 6.997333 0 0 1 3.285333-13.141333c0.64 0 65.194667-0.554667 71.04-37.418667 5.12-31.786667-61.056-83.328-87.04-100.48a6.997333 6.997333 0 0 1 5.333334-12.672c6.144 1.28 150.656 33.152 135.381333 117.290667-9.301333 51.541333-41.728 62.378667-67.242667 62.378667zM658.474667 204.373333a6.997333 6.997333 0 0 1-2.858667 7.04l-34.645333 24.277334a6.997333 6.997333 0 0 1-5.845334 1.024c-0.341333-0.085333-36.565333-9.6-89.173333-15.445334a619.093333 619.093333 0 0 0-67.669333-3.584c-52.565333 0-86.954667 6.186667-91.989334 10.709334-0.64 1.28-0.426667 1.834667-0.341333 2.133333 0.938667 2.56 5.802667 5.546667 8.96 6.784a6.997333 6.997333 0 0 1-4.096 13.354667c-34.730667-8.405333-51.754667-20.138667-50.517333-34.858667 2.218667-26.154667 62.762667-39.594667 113.92-43.093333 7.381333-0.554667 15.36-0.810667 23.68-0.810667 85.162667 0 194.261333 26.709333 195.370666 27.008a6.997333 6.997333 0 0 1 5.205334 5.504zM397.226667 148.309333a6.997333 6.997333 0 0 1-4.010667 12.8c-4.693333-0.085333-45.568-1.92-48.426667-27.989333-0.853333-7.765333 1.322667-14.933333 6.613334-21.12 14.677333-17.450667 54.357333-27.776 121.216-31.658667 7.936-0.469333 15.957333-0.725333 23.893333-0.725333 85.034667 0 142.293333 26.624 144.682667 27.733333a6.997333 6.997333 0 0 1 0.682666 12.330667l-43.818666 26.709333a7.04 7.04 0 0 1-5.034667 0.896c-0.298667-0.042667-28.117333-5.802667-70.058667-11.52-7.936-1.066667-17.92-1.621333-29.568-1.621333-41.898667 0-88.533333 6.826667-97.450666 11.306667-0.128 0.853333 0 1.92 1.28 2.858666zM456.917333-0.768c194.730667 0.170667 299.264 34.816 319.402667 56.618667 7.125333 7.68 7.893333 15.018667 7.253333 19.754666-1.450667 11.733333-12.16 18.944-13.354666 19.712a7.082667 7.082667 0 0 1-9.130667-1.237333 6.912 6.912 0 0 1-0.042667-9.088c1.237333-1.578667 1.92-4.266667-1.664-7.850667-8.021333-7.509333-89.216-30.293333-224.426666-37.162666-18.517333-0.981333-37.930667-1.450667-57.728-1.450667-121.045333 0-209.621333 16.554667-221.226667 26.24 4.48 6.4 35.84 16.725333 69.12 22.528a6.997333 6.997333 0 0 1-2.133333 13.824 202.837333 202.837333 0 0 0-7.808-0.554667c-54.997333-3.370667-118.528-10.837333-121.856-39.168a28.842667 28.842667 0 0 1 7.637333-23.296c14.848-16.64 57.514667-38.826667 255.914667-38.826666zM814.592 49.706667a6.997333 6.997333 0 0 1-8.106667-1.578667c-0.256-0.298667-29.525333-30.933333-117.589333-48.896-33.706667-6.784-96.938667-10.197333-188.032-10.197333-91.221333 0-178.048 3.584-178.944 3.626666a6.997333 6.997333 0 1 1-1.92-13.781333c0.938667-0.213333 91.904-21.546667 216.32-21.546667 59.690667 0 117.76 4.864 172.586667 14.421334 102.272 17.92 109.44 68.608 109.653333 70.784a6.997333 6.997333 0 0 1-3.968 7.168z"  horiz-adv-x="1024" />

    
    <glyph glyph-name="dialer_sip" unicode="&#59700;" d="M854 234c24 0 42-18 42-42v-150c0-24-18-42-42-42C454 0 128 326 128 726c0 24 18 42 42 42H320c24 0 42-18 42-42 0-54 8-104 24-152 4-14 2-32-10-44L282 436C344 314 444 216 564 154L658 248c12 12 30 14 44 10 48-16 98-24 152-24z m0 448v44h-44v-44h44zM768 768h128v-128h-86v-86H768V768zM640 682v-128H512v44h86V640H512V768h128v-42H554v-44H640zM726 768v-214h-44V768h44z"  horiz-adv-x="1024" />

    
    <glyph glyph-name="line_style" unicode="&#59956;" d="M128 726h768v-172H128v172zM554 384V470H896V384H554zM128 384V470h342V384H128z m682-342V128H896v-86h-86z m-170 0V128h86v-86H640z m-170 0V128h84v-86h-84z m-172 0V128H384v-86H298z m-170 0V128h86v-86H128z m554 172v84H896v-84H682z m-276 0v84h212v-84h-212z m-278 0v84h214v-84H128z"  horiz-adv-x="1024" />

    
    <glyph glyph-name="rss_feed" unicode="&#60212;" d="M170 466c234 0 424-190 424-424H472C472 208 336 344 170 344V466z m0 240c366 0 664-298 664-664h-120c0 300-244 544-544 544v120z m0-570c0 52 42 92 94 92s92-40 92-92-40-94-92-94S170 84 170 136z"  horiz-adv-x="1024" />

    
    <glyph glyph-name="devops" unicode="&#59701;" d="M613.128 520.352L512.664 431.248l-53.96-47.568-95.136-84.848c-22.72-22.72-52.896-35.144-85.2-35.144-66.384 0-120.344 53.608-120.344 119.992s53.96 119.992 120.344 119.992c32.304 0 62.48-12.424 86.624-36.568L458.712 383.68l54.312 47.928-99.048 86.976c-36.208 36.208-84.488 56.088-135.608 56.088-105.792 0-191.696-85.912-191.696-190.992s85.912-190.992 191.696-190.992c51.12 0 99.4 19.88 133.832 54.312l100.464 88.752 53.96 47.928L661.76 468.528c22.72 22.72 52.896 35.144 85.2 35.144 66.384 0 120.344-53.608 120.344-119.992s-53.96-119.992-120.344-119.992c-31.952 0-62.48 12.424-86.624 36.568L566.616 383.68l-53.608-48.28 98.336-86.624c36.208-35.856 84.136-55.736 135.608-55.736 105.792 0 191.696 85.552 191.696 190.992s-85.912 190.632-191.704 190.632c-51.12 0-99.4-19.88-133.832-54.312z"  horiz-adv-x="1024" />

    
    <glyph glyph-name="local_laundry_servic" unicode="&#59957;" d="M512 42c142 0 256 114 256 256s-114 256-256 256-256-114-256-256 114-256 256-256z m-214 684c-24 0-42-20-42-44S274 640 298 640s44 18 44 42-20 44-44 44z m128 0c-24 0-42-20-42-44S402 640 426 640s44 18 44 42-20 44-44 44zM768 810c48 0 86-36 86-84v-684c0-48-38-84-86-84H256c-48 0-86 36-86 84v684c0 48 38 84 86 84h512z m-376-632L632 420c66-66 66-176 0-242s-174-66-240 0z"  horiz-adv-x="1024" />

    
    <glyph glyph-name="satellite" unicode="&#60213;" d="M214 128h596l-192 256-148-192-108 128z m0 256C380 384 512 518 512 684H426c0-118-94-214-212-214V384z m0 300v-130c70 0 128 60 128 130h-128z m596 84C856 768 896 728 896 682v-596c0-46-40-86-86-86h-596C168 0 128 40 128 86v596C128 728 168 768 214 768h596z"  horiz-adv-x="1024" />

    
    <glyph glyph-name="directions_boat" unicode="&#59702;" d="M256 640v-170l256 84 256-84V640H256z m-88-554l-80 284c-9.56 28.696 7.984 47.328 28 54l54 18V640c0 46 40 86 86 86h128v128h256v-128h128c46 0 86-40 86-86v-198L908 424c20.04-6.68 37.576-25.28 28-54l-80-284h-2c-68 0-130 36-172 84-42-48-102-84-170-84s-128 36-170 84c-42-48-104-84-172-84H168zM854 0h84v-86h-84c-58 0-118 14-172 42-108-56-232-56-340 0a376.432 376.432 0 0 0-172-42h-84V0h84c60 0 120 20 172 56 104-72 236-72 340 0 52-36 112-56 172-56z"  horiz-adv-x="1024" />

    
    <glyph glyph-name="local_library" unicode="&#59958;" d="M512 554c-70 0-128 58-128 128s58 128 128 128 128-58 128-128-58-128-128-128z m0-150c100 94 236 150 384 150v-468c-148 0-284-58-384-152a560.64 560.64 0 0 1-384 152v468c148 0 284-56 384-150z"  horiz-adv-x="1024" />

    
    <glyph glyph-name="rv_hookup" unicode="&#60214;" d="M726 810l128-128-128-128V640H384V726h342v84z m42-512v128H598v-128H768z m-298-256c24 0 42 20 42 44S494 128 470 128s-44-18-44-42 20-44 44-44z m384 128h84v-84h-340c0-70-58-128-128-128s-128 58-128 128H256c-46 0-86 38-86 84v128h300v128h-172v-84l-128 128 128 128V512H768c46 0 86-40 86-86v-256z"  horiz-adv-x="1024" />

    
    <glyph glyph-name="directions_railway" unicode="&#59703;" d="M768 470v212H256v-212h512z m-256-300c46 0 86 40 86 86s-40 86-86 86-86-40-86-86 40-86 86-86z m-342 64v448C170 832 324 854 512 854s342-22 342-172v-448c0-82-68-148-150-148l64-64V0H256v22l64 64c-82 0-150 66-150 148z"  horiz-adv-x="1024" />

    
    <glyph glyph-name="linked_camera" unicode="&#59959;" d="M682 640c48 0 86-38 86-86h56C824 632 760 696 682 696v-56zM512 86c118 0 214 94 214 212S630 512 512 512 298 416 298 298s96-212 214-212zM726 512h212v-470c0-46-38-84-84-84h-684c-46 0-84 38-84 84v512C86 600 124 640 170 640h136L384 726h256v-128c48 0 86-38 86-86z m-44 242v56c142 0 256-114 256-256h-56c0 110-90 200-200 200zM376 298c0 76 60 138 136 138s136-62 136-138-60-136-136-136-136 60-136 136z"  horiz-adv-x="1024" />

    
    <glyph glyph-name="running" unicode="&#60215;" d="M567.464 768c212.056 0 384-171.944 384-384s-171.944-384-384-384c-106.24 0-201.816 43.096-271.36 112.64l60.584 60.584c53.76-54.184 128.424-87.896 210.776-87.896 165.12 0 298.664 133.544 298.664 298.664S732.584 682.656 567.464 682.656c-165.12 0-298.664-133.544-298.664-298.664h85.336L224.432 212.048l-2.984 5.976L98.144 384h85.336c0 212.056 171.944 384 384 384z m-153.6-294.4h58.192v-175.08h-58.192V473.6z m376.336-89.824L615.584 208.696V296.256H499.2V471.336h116.384v87.6l174.616-175.16z"  horiz-adv-x="1024" />

    
    <glyph glyph-name="directions_bus" unicode="&#59704;" d="M768 426V640H256v-214h512z m-64-256c36 0 64 28 64 64s-28 64-64 64-64-28-64-64 28-64 64-64z m-384 0c36 0 64 28 64 64s-28 64-64 64-64-28-64-64 28-64 64-64z m-150 44V640c0 150 154 170 342 170s342-20 342-170v-426c0-38-18-72-44-96v-76c0-24-18-42-42-42h-42c-24 0-44 18-44 42v44h-340v-44c0-24-20-42-44-42H256c-24 0-42 18-42 42v76c-26 24-44 58-44 96z"  horiz-adv-x="1024" />

    
    <glyph glyph-name="local_mall" unicode="&#59960;" d="M512 342c118 0 214 94 214 212H640c0-70-58-128-128-128s-128 58-128 128H298c0-118 96-212 214-212zM512 768c-70 0-128-58-128-128h256c0 70-58 128-128 128z m298-128C856 640 896 600 896 554v-512c0-46-40-84-86-84h-596C168-42 128-4 128 42v512C128 600 168 640 214 640h84c0 118 96 214 214 214s214-96 214-214h84z"  horiz-adv-x="1024" />

    
    <glyph glyph-name="save" unicode="&#60216;" d="M640 512V682H214V512H640z m-128-426c70 0 128 58 128 128s-58 128-128 128-128-58-128-128 58-128 128-128zM726 768L896 598v-512c0-46-40-86-86-86h-596c-48 0-86 40-86 86v596C128 728 166 768 214 768h512z"  horiz-adv-x="1024" />

    
    <glyph glyph-name="directions_car" unicode="&#59705;" d="M214 426h596l-64 192h-468z m532-212c36 0 64 28 64 64s-28 64-64 64-64-28-64-64 28-64 64-64z m-468 0c36 0 64 28 64 64s-28 64-64 64-64-28-64-64 28-64 64-64zM808 640l88-256v-342c0-24-18-42-42-42h-44c-24 0-42 18-42 42v44H256v-44c0-24-18-42-42-42h-44c-24 0-42 18-42 42V384l88 256c8 26 34 42 62 42h468c28 0 54-16 62-42z"  horiz-adv-x="1024" />

    
    <glyph glyph-name="local_gas_station" unicode="&#59961;" d="M768 470c24 0 42 18 42 42S792 554 768 554 726 536 726 512 744 470 768 470z m-256 0v212H256v-212h256z m332 118c20-20 30-46 30-76v-406c0-58-48-106-106-106s-106 48-106 106V320h-64v-320h-428V682C170 728 210 768 256 768h256c46 0 86-40 86-86V384H640c46 0 86-40 86-86v-192c0-24 18-42 42-42s42 18 42 42v308c-14-6-26-8-42-8-58 0-106 48-106 106 0 46 28 84 68 100L640 702l46 44z"  horiz-adv-x="1024" />

    
    <glyph glyph-name="school" unicode="&#60217;" d="M512 768l470-256v-342H896v296L512 256 42 512zM214 334L512 170l298 164v-172L512 0 214 162v172z"  horiz-adv-x="1024" />

    
    <glyph glyph-name="directions_run" unicode="&#59706;" d="M422 70L124 128l16 86 210-42 68 346L340 488v-146H256v200L478 636c12 0 22 4 34 4 30 0 54-16 72-42l42-68c34-60 102-102 184-102v-86C716 342 632 384 576 448l-26-128L640 236v-320H554v256L464 256z m154 592c-46 0-86 40-86 86S530 832 576 832s84-38 84-84S622 662 576 662z"  horiz-adv-x="1024" />

    
    <glyph glyph-name="local_pharmacy" unicode="&#59962;" d="M682 298V384h-128V512h-84v-128h-128v-86h128v-128h84v128h128z m214 384v-84l-86-256 86-256V0H128v86l86 256-86 256v84h542l62 172L832 816l-48-134h112z"  horiz-adv-x="1024" />

    
    <glyph glyph-name="schedule" unicode="&#60218;" d="M534 598v-224l192-114-32-54-224 136v256h64zM512 42c188 0 342 154 342 342S700 726 512 726 170 572 170 384 324 42 512 42z m0 768c236 0 426-190 426-426S748-42 512-42 86 148 86 384 276 810 512 810z"  horiz-adv-x="1024" />

    
    <glyph glyph-name="directions_transit" unicode="&#59707;" d="M768 426V640H554v-214H768z m-64-256c36 0 64 28 64 64s-28 64-64 64-64-28-64-64 28-64 64-64z m-234 256V640H256v-214h214zM320 170c36 0 64 28 64 64s-28 64-64 64-64-28-64-64 28-64 64-64z m192 640c188 0 342-20 342-170v-406c0-82-68-148-150-148l64-64V0H256v22l64 64c-82 0-150 66-150 148V640c0 150 154 170 342 170z"  horiz-adv-x="1024" />

    
    <glyph glyph-name="local_parking" unicode="&#59963;" d="M564 426c46 0 84 40 84 86s-38 86-84 86H426v-172H564zM554 768c142 0 256-114 256-256S696 256 554 256h-128v-256H256V768h298z"  horiz-adv-x="1024" />

    
    <glyph glyph-name="saga_define" unicode="&#60219;" d="M639.432 162.784c-26.192-123.168-73.592-205.448-127.72-205.448s-101.528 82.28-127.72 205.448c-119.768-38.904-214.72-38.992-241.784 7.88S162.696 299.728 256.272 384C162.696 468.264 115.144 550.456 142.208 597.336s122.024 46.784 241.784 7.88c26.192 123.168 73.592 205.448 127.72 205.448s101.528-82.28 127.72-205.448c119.768 38.904 214.72 38.992 241.784-7.88S860.728 468.272 767.152 384c93.576-84.264 141.128-166.456 114.064-213.336s-122.024-46.784-241.784-7.88zM310.96 421.416l60.744 43.776 7.192 74.008s-37.648 17.352-82.4 23.184c-26.856 3.504-63.608 7.52-74.368-12.72-6.608-12.432 0.72-35.104 24.68-64.624a391.36 391.36 0 0 1 33.864-36.888c5.688-5.464 15.776-14.376 30.28-26.728z m132.664 154.832l68.288-30.72 67.688 30.768s-3.8 41.28-21.12 82.952c-10.392 25.008-25.288 58.848-48.2 58.04-14.064-0.496-30.04-18.168-43.624-53.688a391.584 391.584 0 0 1-15.016-47.776c-1.888-7.656-4.56-20.848-8.008-39.592z m201.352-36.608l7.536-74.496 60.496-43.232s33.848 23.928 61.28 59.768c16.464 21.504 38.32 51.328 26.168 70.768-7.464 11.936-30.752 16.928-68.312 10.936a392.344 392.344 0 0 1-48.88-10.88c-7.576-2.192-20.336-6.48-38.288-12.864z m68.464-193.856l-60.744-43.776-7.192-74.008s37.648-17.352 82.4-23.184c26.856-3.504 63.608-7.52 74.368 12.72 6.608 12.432-0.72 35.104-24.68 64.624a392.216 392.216 0 0 1-33.864 36.896c-5.688 5.464-15.776 14.376-30.28 26.728zM580.072 191.392l-68.288 30.72-67.688-30.776s3.8-41.28 21.12-82.952c10.392-25.008 25.288-58.848 48.2-58.04 14.064 0.496 30.04 18.168 43.624 53.688a391.584 391.584 0 0 1 15.016 47.776c1.888 7.656 4.56 20.848 8.008 39.584z m-201.92 38.056l-7.52 74.504-60.512 43.224s-33.872-23.944-61.328-59.792c-16.472-21.512-38.352-51.344-26.2-70.784 7.464-11.936 30.768-16.92 68.344-10.92a392.456 392.456 0 0 1 48.912 10.896c7.576 2.192 20.352 6.488 38.312 12.872zM511.712 479.2c-15-7.88-27.568-14.704-37.696-20.48s-25.248-14.72-45.36-26.856v-47.952c0-10.592 0.344-26.552 1.032-47.856 17.216-10.584 30.472-18.56 39.76-23.928s23.376-13.208 42.264-23.504c20.768 11.328 35.464 19.472 44.096 24.432s21.48 12.624 38.536 23c0.688 20.608 1.032 36.296 1.032 47.064s-0.344 27.024-1.032 48.744c-18.864 11.376-32.792 19.632-41.776 24.784s-22.608 12.664-40.864 22.552z m0-142.816a47.616 47.616 0 1 0 0 95.24 47.616 47.616 0 0 0 0-95.24z m0 35.712a11.904 11.904 0 1 1 0 23.8 11.904 11.904 0 0 1 0-23.8z"  horiz-adv-x="1024" />

    
    <glyph glyph-name="directions_walk" unicode="&#59708;" d="M418 516l-120-602H388L466 256l88-86v-256H640v320L550 320 576 448c56-64 140-106 234-106v84c-82 0-148 44-182 104l-44 68C566 624 542 640 512 640c-12 0-22-4-34-4L256 542v-200h86v144l76 30zM576 662c-46 0-86 38-86 84S530 832 576 832s86-40 86-86-40-84-86-84z"  horiz-adv-x="1024" />

    
    <glyph glyph-name="local_offer" unicode="&#59964;" d="M234 598c36 0 64 28 64 64s-28 64-64 64-64-28-64-64 28-64 64-64z m680-196c16-16 24-36 24-60s-8-44-24-60l-300-300c-16-16-36-24-60-24s-44 8-60 24l-384 384c-16 16-24 36-24 60v300c0 46 38 84 84 84h300c24 0 44-8 60-24z"  horiz-adv-x="1024" />

    
    <glyph glyph-name="scanner" unicode="&#60220;" d="M810 170V256H384v-86h426z m-512 0V256h-84v-86h84zM844 440c30-8 52-44 52-78V128c0-46-40-86-86-86h-596C168 42 128 82 128 128V298C128 344 168 384 214 384h536l-600 218 30 80z"  horiz-adv-x="1024" />

    
    <glyph glyph-name="directions" unicode="&#59709;" d="M598 278l148 148L598 576v-106H384c-24 0-42-20-42-44V256h84V384h172v-106z m328 136c16-18 16-44 0-60l-384-384c-16-16-44-16-60 0l-384 384c-16 16-16 44 0 60l384 384c16 16 44 16 60 0z"  horiz-adv-x="1024" />

    
    <glyph glyph-name="local_pizza" unicode="&#59965;" d="M512 256c46 0 86 40 86 86s-40 84-86 84-86-38-86-84S466 256 512 256zM298 598C298 552 338 512 384 512s86 40 86 86-40 84-86 84-86-38-86-84zM512 810c152 0 290-66 384-170l-384-682L128 640c94 104 232 170 384 170z"  horiz-adv-x="1024" />

    
    <glyph glyph-name="screen_lock_landscap" unicode="&#60221;" d="M460 470v-44h104v44c0 28-24 50-52 50s-52-22-52-50z m-34-256C402 214 384 232 384 256V384c0 24 18 42 42 42v44c0 46 38 84 86 84 46 0 86-36 86-84v-44c24 0 42-18 42-42v-128c0-24-18-42-42-42h-172z m384-44v428h-596v-428h596z m86 512c46 0 86-38 86-84v-428c0-46-40-84-86-84H128c-46 0-86 38-86 84v428c0 46 40 84 86 84h768z"  horiz-adv-x="1024" />

    
    <glyph glyph-name="disc_full" unicode="&#59710;" d="M426 298C472 298 512 338 512 384s-40 86-86 86-84-40-84-86 38-86 84-86z m0 428C614 726 768 572 768 384s-154-342-342-342S86 196 86 384s152 342 340 342z m428-128h84V384h-84V598z m0-384v84h84v-84h-84z"  horiz-adv-x="1024" />

    
    <glyph glyph-name="local_play" unicode="&#59966;" d="M664 180l-46 174 140 116L578 480 512 648l-66-168L264 470l142-116L360 180l152 98zM854 384c0-46 38-86 84-86V128c0-46-38-86-84-86h-684c-46 0-84 40-84 86V298c48 0 84 40 84 86s-38 86-84 86V640c0 46 38 86 84 86h684c46 0 84-40 84-86v-170c-46 0-84-40-84-86z"  horiz-adv-x="1024" />

    
    <glyph glyph-name="screen_lock_portrait" unicode="&#60222;" d="M726 86v596h-428v-596h428z m0 768c46 0 84-40 84-86v-768c0-46-38-86-84-86h-428c-46 0-84 40-84 86V768c0 46 38 86 84 86h428z m-266-384v-44h104v44c0 28-24 50-52 50s-52-22-52-50z m-34-256C402 214 384 232 384 256V384c0 24 18 42 42 42v44c0 46 38 84 86 84 46 0 86-36 86-84v-44c24 0 42-18 42-42v-128c0-24-18-42-42-42h-172z"  horiz-adv-x="1024" />

    
    <glyph glyph-name="dns" unicode="&#59711;" d="M298 512C344 512 384 552 384 598s-40 84-86 84-84-38-84-84S252 512 298 512z m556 256c24 0 42-18 42-42v-256c0-24-18-44-42-44h-684c-24 0-42 20-42 44v256c0 24 18 42 42 42h684z m-556-682C344 86 384 124 384 170S344 256 298 256s-84-40-84-86 38-84 84-84z m556 256c24 0 42-20 42-44v-256c0-24-18-42-42-42h-684c-24 0-42 18-42 42v256c0 24 18 44 42 44h684z"  horiz-adv-x="1024" />

    
    <glyph glyph-name="local_taxi" unicode="&#59967;" d="M214 426h596l-64 192h-468z m532-212c36 0 64 28 64 64s-28 64-64 64-64-28-64-64 28-64 64-64z m-468 0c36 0 64 28 64 64s-28 64-64 64-64-28-64-64 28-64 64-64zM808 640l88-256v-342c0-24-18-42-42-42h-44c-24 0-42 18-42 42v44H256v-44c0-24-18-42-42-42h-44c-24 0-42 18-42 42V384l88 256c8 26 34 42 62 42H384V768h256v-86h106c28 0 54-16 62-42z"  horiz-adv-x="1024" />

    
    <glyph glyph-name="screen_lock_rotation" unicode="&#60223;" d="M716 790V768h146v22c0 40-32 72-72 72s-74-32-74-72zM682 512c-24 0-42 18-42 42v172c0 24 18 42 42 42v22C682 848 732 896 790 896S896 848 896 790V768c24 0 42-18 42-42v-172c0-24-18-42-42-42H682z m-320-490l56 56L580-84l-28-2c-268 0-488 208-510 470h64c16-160 116-296 256-362zM992 352c26-24 26-66 0-92l-272-270c-24-26-64-26-90 0l-512 512c-26 24-26 64 0 90L388 864C412 890 454 890 480 864l104-104-60-60-90 88L192 548 676 64l240 242L822 400l60 60z"  horiz-adv-x="1024" />

    
    <glyph glyph-name="ac_unit" unicode="&#59456;" d="M938 426v-84H760l138-138-60-62-198 200H554V256l200-198-62-60L554 136v-178h-84V136L332-2l-62 60 200 198V342H384l-198-200-60 62L264 342H86v84H264L126 564l60 62 198-200h86V512l-200 198 62 60L470 632V810h84V632L692 770l62-60-200-198v-86H640l198 200 60-62L760 426h178z"  horiz-adv-x="1024" />

    
    <glyph glyph-name="do_not_disturb_alt" unicode="&#59712;" d="M512 42c188 0 342 154 342 342 0 76-28 150-74 210L302 116c60-46 134-74 210-74zM170 384c0-76 28-150 74-210L722 652c-60 46-134 74-210 74-188 0-342-154-342-342zM512 810c234 0 426-192 426-426s-192-426-426-426-426 192-426 426 192 426 426 426z"  horiz-adv-x="1024" />

    
    <glyph glyph-name="location_city" unicode="&#59968;" d="M810 256V342h-84V256h84z m0-170v84h-84v-84h84z m-256 512v84h-84v-84h84z m0-172V512h-84v-86h84z m0-170V342h-84V256h84z m0-170v84h-84v-84h84z m-256 340V512h-84v-86h84z m0-170V342h-84V256h84z m0-170v84h-84v-84h84zM640 426h256V0H128V598h256v84l128 128 128-128v-256z"  horiz-adv-x="1024" />

    
    <glyph glyph-name="screen_rotation" unicode="&#60224;" d="M320-20l58 56 162-162-28-2C244-128 24 80 2 342h64c16-160 114-296 254-362z m312 12l272 272-512 512-272-272zM436 822l514-514c26-24 26-64 0-90l-272-272c-24-26-64-26-90 0L74 460c-26 24-26 64 0 90l272 272c24 26 64 26 90 0zM704 788l-58-56L484 894 512 896c268 0 488-208 510-470h-64c-16 160-114 296-254 362z"  horiz-adv-x="1024" />

    
    <glyph glyph-name="accessibility" unicode="&#59457;" d="M896 512H640v-554H554v256h-84v-256H384V512H128V598h768V512zM512 810c46 0 86-38 86-84S558 640 512 640s-86 40-86 86 40 84 86 84z"  horiz-adv-x="1024" />

    
    <glyph glyph-name="disconnect" unicode="&#59713;" d="M358.4 768h85.336v-128H358.4V768zM128 529.064h128v-85.336H128V529.064z m102.32 190.68l90.512-90.512-60.344-60.336-90.512 90.512 60.344 60.344zM665.6 0H580.264V128H665.6v-128zM896 238.936H768V324.272h128v-85.336z m-102.32-190.68L703.168 138.768l60.344 60.344 90.512-90.512-60.344-60.344zM683.416 317.448l-60.328 60.328 120.632 120.632c32.392 32.392 32.392 84.912 0 117.304s-84.912 32.392-117.304 0L505.784 495.08l-60.336 60.336L566.08 676.048c65.712 65.712 172.256 65.712 237.968 0s65.712-172.256 0-237.968L683.416 317.448zM592.904 226.936L457.92 91.952c-65.712-65.712-172.256-65.712-237.968 0s-65.712 172.256 0 237.968l134.984 134.984 60.336-60.336L280.304 269.6c-32.392-32.392-32.392-84.912 0-117.304s84.912-32.392 117.304 0l134.968 134.968 60.328-60.328z"  horiz-adv-x="1024" />

    
    <glyph glyph-name="location_disabled" unicode="&#59969;" d="M694 148L276 566C238 516 214 452 214 384c0-166 132-298 298-298 68 0 132 24 182 62zM128 714L182 768 896 54l-54-54-88 88c-56-46-124-78-200-86v-88h-84v88c-178 20-320 162-340 340h-88v84h88c8 76 40 144 86 200z m766-288h88v-84h-88c-6-48-20-96-42-136l-64 64C802 304 810 344 810 384c0 166-132 298-298 298-40 0-80-8-114-22l-64 64c42 22 88 36 136 42v88h84v-88c178-20 320-162 340-340z"  horiz-adv-x="1024" />

    
    <glyph glyph-name="sd_storage" unicode="&#60225;" d="M768 554v172H682v-172H768z m-128 0v172H554v-172H640z m-128 0v172H426v-172H512z m256 256c46 0 86-38 86-84v-684c0-46-40-84-86-84H256c-46 0-86 38-86 84l2 512 254 256H768z"  horiz-adv-x="1024" />

    
    <glyph glyph-name="access_alarms" unicode="&#59458;" d="M512 42c166 0 298 134 298 300S678 640 512 640 214 508 214 342s132-300 298-300z m0 684c214 0 384-170 384-384s-170-384-384-384-384 170-384 384 170 384 384 384z m22-172V328L704 226l-34-52-200 124v256h64z m-196 196L140 588l-54 64 196 162z m600-98l-54-64-198 168 56 64z"  horiz-adv-x="1024" />

    
    <glyph glyph-name="do_not_disturb_off" unicode="&#59714;" d="M298 342h148L360 426h-62v-84zM96 800l832-832-56-54-118 120c-68-48-152-76-242-76-236 0-426 190-426 426 0 90 28 174 76 242L42 744z m630-374h-148l-308 308c68 48 152 76 242 76 236 0 426-190 426-426 0-90-28-174-76-242L664 342h62v84z"  horiz-adv-x="1024" />

    
    <glyph glyph-name="local_shipping" unicode="&#59970;" d="M768 106c36 0 64 28 64 64s-28 64-64 64-64-28-64-64 28-64 64-64z m64 384H726V384h190z m-576-384c36 0 64 28 64 64s-28 64-64 64-64-28-64-64 28-64 64-64z m598 448l128-170v-214H896c0-70-58-128-128-128s-128 58-128 128H384c0-70-58-128-128-128s-128 58-128 128H42V640c0 46 40 86 86 86h598v-172h128z"  horiz-adv-x="1024" />

    
    <glyph glyph-name="screen_share" unicode="&#60226;" d="M554 278l172 160-172 160v-92c-166-24-232-136-256-250 60 80 138 116 256 116v-94zM854 128H1024v-86H0V128h170c-48 0-84 40-84 86V640c0 48 36 86 84 86h684c46 0 84-38 84-86v-426c0-46-38-86-84-86z"  horiz-adv-x="1024" />

    
    <glyph glyph-name="accessible" unicode="&#59459;" d="M548 128h88c-20-98-106-170-210-170-118 0-212 94-212 212 0 104 72 190 170 210v-88c-50-18-86-66-86-122 0-70 58-128 128-128 56 0 104 36 122 86zM426 508c0 59.976 66.72 113.016 128 78h2V584c10-4 18-10 26-18l56-62c42-46 106-78 172-78v-84c-74 0-156 36-212 82v-146h128c46 0 84-40 84-86v-234h-84v212H512c-46 0-86 40-86 86V508z m0 218c0 48 38 84 86 84s86-36 86-84S560 640 512 640s-86 38-86 86z"  horiz-adv-x="1024" />

    
    <glyph glyph-name="dock" unicode="&#59715;" d="M682 256V682h-340V256h340z m0 596C728 852 768 814 768 768v-598c0-46-40-84-86-84h-340C296 86 256 124 256 170V768c0 46 40 86 86 86z m-340-938V0h340v-86h-340z"  horiz-adv-x="1024" />

    
    <glyph glyph-name="location_searching" unicode="&#59971;" d="M512 86c166 0 298 132 298 298S678 682 512 682 214 550 214 384s132-298 298-298z m382 340h88v-84h-88c-20-178-162-320-340-340v-88h-84v88c-178 20-320 162-340 340h-88v84h88c20 178 162 320 340 340v88h84v-88c178-20 320-162 340-340z"  horiz-adv-x="1024" />

    
    <glyph glyph-name="search" unicode="&#60227;" d="M406 298c106 0 192 86 192 192s-86 192-192 192-192-86-192-192 86-192 192-192z m256 0l212-212-64-64-212 212V268l-12 12c-48-42-112-66-180-66C252 214 128 336 128 490S252 768 406 768s276-124 276-278c0-68-24-132-66-180l12-12h34z"  horiz-adv-x="1024" />

    
    <glyph glyph-name="account_balance" unicode="&#59460;" d="M490 854L896 640v-86H86V640z m192-384h128v-300h-128v300z m-596-512v128H896v-128H86z m340 512h128v-300h-128v300z m-256 0h128v-300h-128v300z"  horiz-adv-x="1024" />

    
    <glyph glyph-name="domain" unicode="&#59716;" d="M768 256v-86H682V256H768z m0 170v-84H682v84H768z m86-340V512H512v-86h86v-84H512V256h86v-86H512v-84h342z m-428 512v84h-84v-84h84z m0-172V512h-84v-86h84z m0-170V342h-84V256h84z m0-170v84h-84v-84h84zM256 598v84H170v-84H256z m0-172V512H170v-86H256zM256 256V342H170V256H256z m0-170v84H170v-84H256z m256 512h426V0H86V768H512v-170z"  horiz-adv-x="1024" />

    
    <glyph glyph-name="lock_outline" unicode="&#59972;" d="M768 42v428H256v-428h512zM380 640v-86h264V640c0 72-60 132-132 132S380 712 380 640zM768 554c46 0 86-38 86-84v-428c0-46-40-84-86-84H256c-46 0-86 38-86 84v428c0 46 40 84 86 84h42V640c0 118 96 214 214 214s214-96 214-214v-86H768z m-256-384c-46 0-86 40-86 86s40 86 86 86 86-40 86-86-40-86-86-86z"  horiz-adv-x="1024" />

    
    <glyph glyph-name="secret" unicode="&#60228;" d="M597.336 810.664l256-256v-512c0-46.936-38.4-85.336-85.336-85.336H255.576c-46.936 0-84.904 38.4-84.904 85.336l0.424 682.664c0 46.936 37.976 85.336 84.904 85.336h341.336zM554.664 512h234.664L554.664 746.664V512z m-30.056-201.312c-15.904 45.184-58.96 77.576-109.576 77.576-64.192 0-116.368-52.168-116.368-116.368s52.168-116.368 116.368-116.368c50.616 0 93.672 32.392 109.576 77.576h84.368v-77.576h77.576v77.576h38.792v77.576H524.616z m-109.576-77.576c-21.336 0-38.792 17.456-38.792 38.792s17.456 38.792 38.792 38.792c21.336 0 38.792-17.456 38.792-38.792s-17.456-38.792-38.792-38.792z"  horiz-adv-x="1024" />

    
    <glyph glyph-name="account_circle" unicode="&#59461;" d="M512 76c106 0 200 56 256 138-2 84-172 132-256 132-86 0-254-48-256-132 56-82 150-138 256-138z m0 606c-70 0-128-58-128-128s58-128 128-128 128 58 128 128-58 128-128 128z m0 128c236 0 426-190 426-426S748-42 512-42 86 148 86 384 276 810 512 810z"  horiz-adv-x="1024" />

    
    <glyph glyph-name="done_all" unicode="&#59717;" d="M18 324l60 60L316 146l-60-60zM948 658l62-60-512-512-240 238L320 384l178-178zM768 598l-270-272-60 60 270 272z"  horiz-adv-x="1024" />

    
    <glyph glyph-name="lock_open" unicode="&#59973;" d="M768 42v428H256v-428h512z m0 512c46 0 86-38 86-84v-428c0-46-40-84-86-84H256c-46 0-86 38-86 84v428c0 46 40 84 86 84h388V640c0 72-60 132-132 132S380 712 380 640H298c0 118 96 214 214 214s214-96 214-214v-86H768z m-256-384c-46 0-86 40-86 86s40 86 86 86 86-40 86-86-40-86-86-86z"  horiz-adv-x="1024" />

    
    <glyph glyph-name="send" unicode="&#60229;" d="M86 0V298l640 86-640 86V768l896-384z"  horiz-adv-x="1024" />

    
    <glyph glyph-name="account_box" unicode="&#59462;" d="M256 170V128h512v42c0 86-170 132-256 132S256 256 256 170zM640 512c0 70-58 128-128 128s-128-58-128-128 58-128 128-128 128 58 128 128zM128 682C128 728 166 768 214 768h596C856 768 896 728 896 682v-596c0-46-40-86-86-86h-596c-48 0-86 40-86 86v596z"  horiz-adv-x="1024" />

    
    <glyph glyph-name="domain_list" unicode="&#59718;" d="M324.264 648H256V776h341.336v-136.536h341.336V161.6h-128v68.264h59.736V571.2H597.344v-59.736h-68.264V707.728h-204.8v-59.736z m102.4-179.2H768v-477.864H85.336v614.4h341.336V468.8z m-204.8-409.6v68.264H153.6v-68.264h68.264z m0 136.536V264H153.6v-68.264h68.264z m0 136.528v68.264H153.6v-68.264h68.264z m0 136.536v68.264H153.6V468.8h68.264zM358.4 59.2v68.264h-68.264v-68.264H358.4z m0 136.536V264h-68.264v-68.264H358.4z m0 136.528v68.264h-68.264v-68.264H358.4z m0 136.536v68.264h-68.264V468.8H358.4z m341.336-409.6V400.536H426.672v-68.264h68.264v-68.264h-68.264v-68.264h68.264v-68.264h-68.264v-68.264h273.064z m-68.272 273.064V264H563.2v68.264h68.264z m0-136.528v-68.264H563.2v68.264h68.264z"  horiz-adv-x="1024" />

    
    <glyph glyph-name="lock" unicode="&#59974;" d="M644 554V640c0 72-60 132-132 132S380 712 380 640v-86h264z m-132-384c46 0 86 40 86 86s-40 86-86 86-86-40-86-86 40-86 86-86z m256 384c46 0 86-38 86-84v-428c0-46-40-84-86-84H256c-46 0-86 38-86 84v428c0 46 40 84 86 84h42V640c0 118 96 214 214 214s214-96 214-214v-86H768z"  horiz-adv-x="1024" />

    
    <glyph glyph-name="sentiment_dissatisfi" unicode="&#60230;" d="M512 298c100 0 184-60 218-148H660C630 200 576 234 512 234S394 200 364 150h-70C328 238 412 298 512 298z m0-256c188 0 342 154 342 342S700 726 512 726 170 572 170 384 324 42 512 42z m0 768c236 0 426-190 426-426S748-42 512-42 86 148 86 384 276 810 512 810z m-214-320c0 36 28 64 64 64s64-28 64-64-28-64-64-64-64 28-64 64z m300 0c0 36 28 64 64 64s64-28 64-64-28-64-64-64-64 28-64 64z"  horiz-adv-x="1024" />

    
    <glyph glyph-name="add_a_photo" unicode="&#59463;" d="M418 298c0 76 60 138 136 138S692 374 692 298s-62-136-138-136-136 60-136 136z m136-212C672 86 768 180 768 298S672 512 554 512s-212-96-212-214 94-212 212-212zM256 470v128h128v128h298L760 640h136c46 0 86-40 86-86v-512c0-46-40-84-86-84H214C168-42 128-4 128 42v428h128z m-128 256v128h86v-128h128V640h-128v-128H128V640H0V726h128z"  horiz-adv-x="1024" />

    
    <glyph glyph-name="done" unicode="&#59719;" d="M384 204l452 454 60-60-512-512L146 324 204 384z"  horiz-adv-x="1024" />

    
    <glyph glyph-name="looks_" unicode="&#59975;" d="M640 448v64c0 48-38 86-84 86H384V512h172v-86H470v-84H556V256H384v-86h172C602 170 640 208 640 256v64c0 36-28 64-64 64 36 0 64 28 64 64z m172 320c46 0 84-40 84-86v-596c0-46-38-86-84-86H214C168 0 128 40 128 86v596C128 728 168 768 214 768h598z"  horiz-adv-x="1024" />

    
    <glyph glyph-name="select_all" unicode="&#60231;" d="M384 512v-256h256V512H384zM298 170v428h428v-428h-428z m342 512V768h86v-86H640zM640 0v86h86V0H640z m170 170V256H896v-86h-86z m0 342V598H896V512h-86z m0-512v86H896c0-46-40-86-86-86z m0 342v84H896v-84h-86zM470 0v86h84V0h-84zM384 768v-86H298V768H384zM128 170V256h86v-86H128zM214 0C168 0 128 40 128 86h86V0z m596 768C856 768 896 728 896 682h-86V768z m-256 0v-86h-84V768h84zM128 512V598h86V512H128z m170-512v86H384V0H298zM128 342v84h86v-84H128z m0 340C128 728 168 768 214 768v-86H128z"  horiz-adv-x="1024" />

    
    <glyph glyph-name="add_activity" unicode="&#59464;" d="M369.568 506.144h489.576v-81.6H369.568v81.6zM369.568 669.336h489.576v-81.6H369.568v81.6zM369.568 342.952h326.384v-81.6H369.568v81.6zM777.552 342.952V98.16l203.992 122.392zM221.16 455.144V562.24h-71.392v-107.096H42.672v-71.392h107.096v-107.096h71.4V383.752h107.096v71.4z"  horiz-adv-x="1024" />

    
    <glyph glyph-name="donut_large" unicode="&#59720;" d="M554 88c128 18 238 126 256 254h128c-20-214-170-364-384-384V88z m256 338c-18 128-128 236-256 254V810c214-20 364-170 384-384h-128zM470 680c-128-20-256-146-256-296s128-276 256-296v-130c-214 22-384 204-384 426s170 404 384 426V680z"  horiz-adv-x="1024" />

    
    <glyph glyph-name="looks_1" unicode="&#59976;" d="M640 512V598H470C424 598 384 560 384 512v-256c0-48 40-86 86-86h84C600 170 640 208 640 256V342c0 48-40 84-86 84h-84V512H640z m170 256C856 768 896 728 896 682v-596c0-46-40-86-86-86h-596C168 0 128 40 128 86v596C128 728 168 768 214 768h596z m-340-512V342h84V256h-84z"  horiz-adv-x="1024" />

    
    <glyph glyph-name="sentiment_neutral" unicode="&#60232;" d="M512 42c188 0 342 154 342 342S700 726 512 726 170 572 170 384 324 42 512 42z m0 768c236 0 426-190 426-426S748-42 512-42 86 148 86 384 276 810 512 810z m-214-320c0 36 28 64 64 64s64-28 64-64-28-64-64-64-64 28-64 64z m300 0c0 36 28 64 64 64s64-28 64-64-28-64-64-64-64 28-64 64zM384 298h256v-64H384v64z"  horiz-adv-x="1024" />

    
    <glyph glyph-name="add_alert" unicode="&#59465;" d="M682 340V426h-128v128h-84v-128h-128V340h128v-128h84v128h128z m124-162L896 88v-46H128V88l90 90v248c0 138 96 256 226 286v30c0 38 30 68 68 68s68-30 68-68V712c130-30 226-148 226-286v-248zM428 0h168c0-46-38-86-84-86s-84 40-84 86z"  horiz-adv-x="1024" />

    
    <glyph glyph-name="document" unicode="&#59721;" d="M925.44 597.992c-7.16 9.568-17.248 16.904-30.248 22.032 0.696-11.96-0.152-21.696-2.552-29.224l-153.72-505.752c-2.736-8.88-8.72-15.968-17.936-21.264-9.224-5.296-18.792-7.944-28.696-7.944h-472.96c-40.992 0-65.584 11.936-73.784 35.872-3.416 9.224-3.24 16.56 0.52 22.032 3.752 5.128 10.248 7.696 19.472 7.696h445.288c31.768 0 53.72 5.896 65.848 17.68 12.136 11.784 24.344 38.008 36.64 78.656l140.4 464.256c7.512 25.28 4.44 47.488-9.224 66.608s-33.136 28.696-58.416 28.696H396.128c-4.44 0-13.152-1.536-26.136-4.608l0.512 1.544c-9.568 2.048-17.68 2.984-24.344 2.816-6.656-0.176-12.808-2.136-18.448-5.904s-10.168-7.768-13.576-12.032c-3.416-4.272-6.752-9.736-9.992-16.4-3.24-6.672-5.976-12.816-8.2-18.456s-4.784-11.616-7.68-17.944c-2.912-6.32-5.72-11.528-8.456-15.624-2.048-2.736-4.952-6.32-8.712-10.76-3.752-4.44-6.832-8.368-9.224-11.784s-3.928-6.488-4.608-9.224c-0.68-3.072-0.344-7.6 1.024-13.576 1.36-5.976 1.88-10.328 1.536-13.064-1.36-12.984-6.064-29.456-14.088-49.448s-15.296-34.424-21.784-43.304c-1.368-1.704-5.12-5.552-11.272-11.528s-9.904-11.184-11.272-15.624c-1.368-1.704-1.456-6.496-0.256-14.344s1.624-13.32 1.28-16.4c-1.376-11.616-5.632-26.984-12.816-46.12s-14.344-34.84-21.528-47.136c-1.024-2.048-3.92-5.976-8.712-11.784-4.776-5.808-7.688-10.592-8.712-14.344-0.68-2.736-0.592-7.52 0.256-14.344s0.768-11.952-0.256-15.368c-2.728-12.976-7.856-28.608-15.368-46.888-7.512-18.264-15.2-33.912-23.064-46.88-2.04-3.424-4.864-7.44-8.448-12.048s-6.4-8.624-8.456-12.04a31.8 31.8 0 0 1-4.096-10.76c-0.344-2.048 0.176-5.384 1.544-10 1.368-4.608 1.88-8.28 1.536-11.016a346.792 346.792 0 0 0-2.048-18.968c-1.024-7.848-1.544-12.456-1.544-13.816-7.512-20.504-7.176-42.2 1.024-65.096 9.568-26.632 26.56-49.104 50.984-67.376s49.784-27.408 76.096-27.408h472.96c22.2 0 43.12 7.432 62.768 22.28 19.64 14.864 32.712 33.216 39.192 55.096l140.912 464.24c7.528 24.6 4.456 46.64-9.224 66.104z m-545.208-1.024l10.76 32.8c1.36 4.44 4.184 8.28 8.448 11.528s8.632 4.864 13.072 4.864h311.552c4.776 0 8.192-1.624 10.248-4.864s2.392-7.088 1.032-11.528l-10.776-32.8c-1.368-4.44-4.176-8.28-8.456-11.528-4.272-3.24-8.624-4.864-13.064-4.864H391.504c-4.784 0-8.2 1.616-10.248 4.864-2.048 3.256-2.392 7.088-1.024 11.528z m-42.528-131.176l10.76 32.792c1.36 4.44 4.184 8.28 8.448 11.528s8.624 4.864 13.072 4.864h311.544c4.784 0 8.208-1.616 10.248-4.864s2.392-7.088 1.016-11.528l-10.76-32.792c-1.36-4.44-4.184-8.288-8.448-11.528-4.28-3.248-8.624-4.864-13.072-4.864H348.968c-4.784 0-8.2 1.616-10.248 4.864-2.056 3.24-2.392 7.088-1.024 11.528z"  horiz-adv-x="1024" />

    
    <glyph glyph-name="looks_2" unicode="&#59977;" d="M640 170v428H554v-172h-84v172H384v-256h170v-172H640zM810 768C856 768 896 728 896 682v-596c0-46-40-86-86-86h-596C168 0 128 40 128 86v596C128 728 168 768 214 768h596z"  horiz-adv-x="1024" />

    
    <glyph glyph-name="sentiment_satisfied" unicode="&#60233;" d="M512 214c64 0 118 34 148 84h70C696 210 612 150 512 150s-184 60-218 148h70C394 248 448 214 512 214z m0-172c188 0 342 154 342 342S700 726 512 726 170 572 170 384 324 42 512 42z m0 768c236 0 426-190 426-426S748-42 512-42 86 148 86 384 276 810 512 810z m-214-320c0 36 28 64 64 64s64-28 64-64-28-64-64-64-64 28-64 64z m300 0c0 36 28 64 64 64s64-28 64-64-28-64-64-64-64 28-64 64z"  horiz-adv-x="1024" />

    
    <glyph glyph-name="add_attach" unicode="&#59466;" d="M687.784 500.856L455.344 98.256c-44.672-77.368-143.512-103.856-220.88-59.184s-103.856 143.512-59.184 220.88l252.648 437.608c27.896 48.312 89.736 64.88 138.048 36.992s64.88-89.744 36.992-138.048L390.744 228.912c-11.12-19.256-35.968-25.912-55.224-14.8s-25.912 35.968-14.792 55.224l192.016 332.576-52.512 30.32-192.016-332.576c-27.896-48.312-11.32-110.16 36.992-138.048s110.16-11.32 138.048 36.992l212.224 367.592c44.672 77.368 18.184 176.216-59.184 220.88s-176.216 18.184-220.88-59.184L122.768 290.28c-61.448-106.424-25.048-242.272 81.376-303.712s242.272-25.048 303.712 81.376l232.44 402.6-52.512 30.32zM926.664 78.664H804V-44h-61.336v122.664H620V140h122.664V262.664h61.336V140h122.664z"  horiz-adv-x="1024" />

    
    <glyph glyph-name="donut_small" unicode="&#59722;" d="M554 262c42 12 66 44 80 80h304c-20-202-170-364-384-384v304z m80 164c-14 36-38 68-80 80v304c214-20 364-182 384-384h-304z m-164 80C428 488 384 440 384 384s44-104 86-122v-304c-214 22-384 204-384 426s170 404 384 426v-304z"  horiz-adv-x="1024" />

    
    <glyph glyph-name="looks_3" unicode="&#59978;" d="M640 512V598H384v-256h170V256H384v-86h170C600 170 640 208 640 256V342c0 48-40 84-86 84h-84V512H640z m170 256C856 768 896 728 896 682v-596c0-46-40-86-86-86h-596C168 0 128 40 128 86v596C128 728 168 768 214 768h596z"  horiz-adv-x="1024" />

    
    <glyph glyph-name="sentiment_very_dissa" unicode="&#60234;" d="M512 298c100 0 184-60 218-148h-436C328 238 412 298 512 298zM334 384L288 430l46 44L288 520l46 44 44-44L424 564l46-44L424 474l46-44L424 384l-46 46z m356 180L736 520l-46-46 46-44L690 384l-44 46L600 384l-46 46 46 44L554 520 600 564l46-44zM512 42c188 0 342 154 342 342S700 726 512 726 170 572 170 384 324 42 512 42z m0 768c236 0 426-190 426-426S748-42 512-42 86 148 86 384 276 810 512 810z"  horiz-adv-x="1024" />

    
    <glyph glyph-name="add_box" unicode="&#59467;" d="M726 342v84h-172v172h-84v-172h-172v-84h172v-172h84v172h172zM810 768C856 768 896 728 896 682v-596c0-46-40-86-86-86h-596c-48 0-86 40-86 86v596C128 728 166 768 214 768h596z"  horiz-adv-x="1024" />

    
    <glyph glyph-name="drafts" unicode="&#59723;" d="M512 342l352 220L512 768 160 562z m426 212V128c0-46-38-86-84-86h-684c-46 0-84 40-84 86V554c0 30 16 60 40 74L512 854l386-226c24-14 40-44 40-74z"  horiz-adv-x="1024" />

    
    <glyph glyph-name="looks_one" unicode="&#59979;" d="M598 170v428h-172V512H512v-342h86zM810 768C856 768 896 728 896 682v-596c0-46-40-86-86-86h-596C168 0 128 40 128 86v596C128 728 168 768 214 768h596z"  horiz-adv-x="1024" />

    
    <glyph glyph-name="settings_application" unicode="&#60235;" d="M736 384c0 10 0 20-2 30l64 48c6 4 6 14 2 20l-60 104c-4 6-12 8-18 6L648 562c-16 12-32 22-50 30l-12 78c-2 6-6 12-14 12h-120c-8 0-12-4-14-12l-12-80c-18-8-34-16-50-28L302 592c-6 2-14-2-18-8L224 482c-4-6-4-16 2-20l64-48C288 404 288 394 288 384s0-20 2-30l-64-48c-6-4-6-14-2-20l60-104c4-6 12-8 18-6L376 206c16-12 32-22 50-30l12-78c2-6 6-12 14-12h120c8 0 12 4 14 12l12 80c18 8 34 16 50 28L722 176c6-2 14 2 18 8l60 102c4 6 4 16-2 20l-64 48C736 364 736 374 736 384z m74 384c48 0 86-40 86-86v-596c0-46-38-86-86-86h-596c-48 0-86 40-86 86v596C128 728 166 768 214 768h596zM512 470c46 0 86-40 86-86s-40-86-86-86-86 40-86 86 40 86 86 86z"  horiz-adv-x="1024" />

    
    <glyph glyph-name="account_balance_wall" unicode="&#59468;" d="M682 320c36 0 64 28 64 64s-28 64-64 64-64-28-64-64 28-64 64-64zM512 214v340h426v-340H512zM896 128v-42c0-46-40-86-86-86h-596c-48 0-86 40-86 86v596C128 728 166 768 214 768h596C856 768 896 728 896 682V640H512c-48 0-86-40-86-86v-340C426 168 464 128 512 128h384z"  horiz-adv-x="1024" />

    
    <glyph glyph-name="edit_location" unicode="&#59724;" d="M636 574c6 6 6 16 0 22l-40 40c-6 6-16 6-22 0L544 606 606 544zM446 384L588 526l-62 62L384 446V384h62zM512 810c164 0 298-134 298-298 0-224-298-554-298-554S214 288 214 512c0 164 134 298 298 298z"  horiz-adv-x="1024" />

    
    <glyph glyph-name="looks_two" unicode="&#59980;" d="M640 426V512c0 48-40 86-86 86H384V512h170v-86h-84C424 426 384 390 384 342v-172h256V256H470V342h84C600 342 640 378 640 426zM810 768C856 768 896 728 896 682v-596c0-46-40-86-86-86h-596C168 0 128 40 128 86v596C128 728 168 768 214 768h596z"  horiz-adv-x="1024" />

    
    <glyph glyph-name="settings_backup_rest" unicode="&#60236;" d="M512 768c212 0 384-172 384-384s-172-384-384-384c-88 0-170 30-234 80l60 60C388 106 448 86 512 86c166 0 298 132 298 298S678 682 512 682 214 550 214 384h128l-172-170L0 384h128c0 212 172 384 384 384z m86-384c0-46-40-86-86-86s-86 40-86 86 40 86 86 86 86-40 86-86z"  horiz-adv-x="1024" />

    
    <glyph glyph-name="add_comment" unicode="&#59469;" d="M938.24 725.336c0 46.936-37.976 85.336-84.904 85.336H170.672c-46.936 0-85.336-38.4-85.336-85.336v-512C85.336 166.4 123.736 128 170.672 128h597.336l170.664-170.664-0.424 768zM725.336 426.664H554.672V256H469.336V426.664H298.672V512h170.664V682.664h85.336V512h170.664v-85.336z"  horiz-adv-x="1024" />

    
    <glyph glyph-name="enhanced_encryption" unicode="&#59725;" d="M682 214v84h-128v128h-84v-128h-128v-84h128v-128h84v128h128zM380 640v-86h264V640c0 72-60 132-132 132S380 712 380 640zM768 554c46 0 86-38 86-84v-428c0-46-40-84-86-84H256c-46 0-86 38-86 84v428c0 46 40 84 86 84h42V640c0 118 96 214 214 214s214-96 214-214v-86H768z"  horiz-adv-x="1024" />

    
    <glyph glyph-name="low_priority" unicode="&#59981;" d="M86 406c0 152 124 276 276 276H512v-84H362c-106 0-192-86-192-192s86-192 192-192H384v84l128-128-128-128V128h-22c-152 0-276 126-276 278z m512-192h340V128h-340V214z m0 234h340v-86h-340V448z m0 234h340v-84h-340v84z"  horiz-adv-x="1024" />

    
    <glyph glyph-name="sentiment_very_satis" unicode="&#60237;" d="M512 150c-100 0-184 60-218 148h436C696 210 612 150 512 150zM378 472l-44-46L288 472l90 90L470 472 424 426z m176 0l92 90L736 472l-46-46-44 46L600 426zM512 42c188 0 342 154 342 342S700 726 512 726 170 572 170 384 324 42 512 42z m0 768c236 0 426-190 426-426S748-42 512-42 86 148 86 384 276 810 512 810z"  horiz-adv-x="1024" />

    
    <glyph glyph-name="add_circle" unicode="&#59470;" d="M726 342v84h-172v172h-84v-172h-172v-84h172v-172h84v172h172zM512 810c236 0 426-190 426-426S748-42 512-42 86 148 86 384 276 810 512 810z"  horiz-adv-x="1024" />

    
    <glyph glyph-name="eject" unicode="&#59726;" d="M512 682L796 256h-568z m-298-512h596v-84h-596v84z"  horiz-adv-x="1024" />

    
    <glyph glyph-name="loupe" unicode="&#59982;" d="M512 42c188 0 342 154 342 342S700 726 512 726 170 572 170 384 324 42 512 42z m0 768c236 0 426-190 426-426v-342c0-46-38-84-84-84H512c-236 0-426 190-426 426S276 810 512 810z m42-212v-172h172v-84h-172v-172h-84v172h-172v84h172v172h84z"  horiz-adv-x="1024" />

    
    <glyph glyph-name="settings_bluetooth" unicode="&#60238;" d="M634 286l-80 80v-160z m-80 446v-160l80 80z m202-80l-184-182 184-184-244-244h-42v324l-196-196-60 60 238 240L214 708l60 60 196-196V896H512zM640-128v86h86V-128H640z m-342 0v86H384V-128H298z m172 0v86h84V-128h-84z"  horiz-adv-x="1024" />

    
    <glyph glyph-name="add_location" unicode="&#59471;" d="M682 470v84h-128v128h-84v-128h-128v-84h128v-128h84v128h128zM512 810c164 0 298-134 298-298 0-224-298-554-298-554S214 288 214 512c0 164 134 298 298 298z"  horiz-adv-x="1024" />

    
    <glyph glyph-name="drag_handle" unicode="&#59727;" d="M170 256V342h684V256h-684z m684 256v-86h-684V512h684z"  horiz-adv-x="1024" />

    
    <glyph glyph-name="loyalty" unicode="&#59983;" d="M736 244c20 20 32 46 32 76 0 58-48 106-106 106-30 0-56-10-76-30l-32-32-30 32C504 416 478 426 448 426c-58 0-106-48-106-106 0-30 10-56 30-76l182-182zM234 598c36 0 64 28 64 64s-28 64-64 64-64-28-64-64 28-64 64-64z m680-196c16-16 24-36 24-60s-8-44-24-60l-300-300c-16-16-36-24-60-24s-44 8-60 24l-384 384c-16 16-24 36-24 60v300c0 46 38 84 84 84h300c24 0 44-8 60-24z"  horiz-adv-x="1024" />

    
    <glyph glyph-name="security" unicode="&#60239;" d="M512 854l384-172v-256c0-236-164-458-384-512-220 54-384 276-384 512v256zM512 384v-382C670 52 788 208 810 384H512z m0 0V760L214 628V384H512z"  horiz-adv-x="1024" />

    
    <glyph glyph-name="adb" unicode="&#59472;" d="M640 512c24 0 42 18 42 42S664 598 640 598s-42-20-42-44S616 512 640 512z m-256 0c24 0 42 18 42 42S408 598 384 598s-42-20-42-44S360 512 384 512z m304 198c74-54 122-142 122-240v-44h-596v44c0 98 48 186 122 240L246 800l36 34L380 736c40 20 84 32 132 32s92-12 132-32L742 834l36-34z m-474-496V384h596v-170c0-166-132-300-298-300S214 48 214 214z"  horiz-adv-x="1024" />

    
    <glyph glyph-name="euro_symbol" unicode="&#59728;" d="M640 106c70 0 132 26 180 68l76-76C828 36 738 0 640 0c-168 0-310 108-362 256H128V342h130C256 356 256 370 256 384s0 28 2 42H128V512h150C330 660 472 768 640 768c98 0 188-36 256-98l-76-76c-48 42-112 68-180 68C534 662 440 600 394 512H640v-86H366c-2-14-4-28-4-42s2-28 4-42H640V256H394C440 168 532 106 640 106z"  horiz-adv-x="1024" />

    
    <glyph glyph-name="looks" unicode="&#59984;" d="M512 640c258 0 470-212 470-470H896c0 212-172 384-384 384s-384-172-384-384H42C42 428 254 640 512 640z m0-170c164 0 298-136 298-300h-84C726 288 630 384 512 384S298 288 298 170h-84c0 164 134 300 298 300z"  horiz-adv-x="1024" />

    
    <glyph glyph-name="settings_ethernet" unicode="&#60240;" d="M758 662l232-278-232-278L692 160l186 224L692 608z m-288-320v84h84v-84h-84z m256 84v-84H640v84h86z m-428-84v84H384v-84H298zM332 608L146 384 332 160l-66-54L34 384l232 278z"  horiz-adv-x="1024" />

    
    <glyph glyph-name="add_task" unicode="&#59473;" d="M777.04 726.664H502.872c-37.696 0-68.2-30.864-68.2-68.584l-0.344-548.656c0-37.72 30.504-68.584 68.2-68.584h411.592c37.696 0 68.544 30.864 68.544 68.584V520.912L777.04 726.656z m68.544-548.648H571.416v68.584h274.168v-68.584z m0 137.16H571.416V383.76h274.168v-68.584zM742.768 486.632V675.232l188.488-188.6H742.768zM256.488 469.888V598.776H170.96v-128.888H42.672v-85.928H170.96v-128.888h85.528V383.96h128.288V469.888z"  horiz-adv-x="1024" />

    
    <glyph glyph-name="error" unicode="&#59729;" d="M554 342v256h-84v-256h84z m0-172V256h-84v-86h84z m-42 640c236 0 426-190 426-426S748-42 512-42 86 148 86 384 276 810 512 810z"  horiz-adv-x="1024" />

    
    <glyph glyph-name="mail_modal" unicode="&#59985;" d="M170.664 640H85.328v-597.336c0-46.936 38.4-85.336 85.336-85.336H768v85.336H170.664V640zM870.4 810.664H324.264c-37.544 0-67.928-38.4-67.928-85.336l-0.344-512c0-46.936 30.72-85.336 68.264-85.336h546.136c37.544 0 68.264 38.4 68.264 85.336v512c0 46.936-30.72 85.336-68.264 85.336z m6.936-207.264l-280-171.504-280 171.504V685.336l280-171.504 280 171.504v-81.936z"  horiz-adv-x="1024" />

    
    </font>
</defs>
</svg>
